<?xml version="1.0" encoding="UTF-8"?>
<!DOCTYPE svg PUBLIC "-//W3C//DTD SVG 1.0//EN" "http://www.w3.org/TR/2001/REC-SVG-20010904/DTD/svg10.dtd">
<!-- Creator: CorelDRAW 2018 (64-Bit) -->
<svg xmlns="http://www.w3.org/2000/svg" xml:space="preserve" width="7.49513in" height="7.51529in" version="1.0" shape-rendering="geometricPrecision" text-rendering="geometricPrecision" image-rendering="optimizeQuality" fill-rule="evenodd" clip-rule="evenodd"
viewBox="0 0 7495.13 7515.28"
 xmlns:xlink="http://www.w3.org/1999/xlink">
 <g id="Layer_x0020_1">
  <metadata id="CorelCorpID_0Corel-Layer"/>
  <g id="_3096608456944">
   <path fill="#3C2414" d="M4534.25 4807.64c-161.63,12.55 -429.77,-29.41 -572.57,-2.92 -12.14,71.57 -3.71,222.26 -6.08,304.34 -2.56,88.94 -4.02,261.61 -25.11,296.39 18.42,78.97 -15.23,532.91 -111.45,662.29 -103.99,139.83 -267.64,142.97 -422.15,70.36 -44.13,-20.74 -76.75,-63.55 -107.09,-94.47 -16.94,-17.25 -31.37,-30.57 -45.35,-45.4l-129.87 -132.05c-9.38,-9.49 -7.45,-7.75 -15.22,-15.46l-1686.62 -1628.52c-40.08,-36.43 -74.2,-51.11 -114.7,-88.73 -174.91,-162.47 -153.97,-375.68 -68.01,-584.89 21.49,-52.3 127.65,-164.52 169.81,-214.48l92.08 -99.02c1.42,-1.46 3.53,-3.58 4.95,-5.05 1.42,-1.47 3.47,-3.66 4.89,-5.14 8.84,-9.25 3.24,-2.85 14.73,-15.57l69.06 -83c28.35,-33.57 61.26,-66.85 92.2,-99.98l463.74 -507.46c66.73,-70.64 125.06,-137.85 189.91,-203.65l584.32 -588.65c1.42,-1.53 3.44,-3.76 4.87,-5.28 55.67,-59.56 312.05,-267.47 385.12,-303.04 2.13,-1.04 4.74,-2.3 6.86,-3.33l13.62 -6.7c108.67,-54.41 210.63,-95.56 343.37,-39.88 129.27,54.22 221.68,217.21 222.03,353.59 0.82,323.29 -7.44,675.36 2.04,990.78 280.8,21.3 1512.27,-26.82 1651.44,14.5 211.56,62.81 259.03,192.32 257.92,410.39 -0.58,113.38 14.7,197.6 17.41,313.38 5.19,222.34 5.46,444.85 4.72,667.28 -0.67,200.6 -6.28,440.87 -100.61,570.11 -122.43,167.73 -293.4,147.02 -530.14,136.85 -204.6,-8.78 -439.47,-32.08 -660.11,-17.59zm-4129.99 -1103.89c0,180.33 18.07,286.33 20.24,394.27 2.05,101.74 17.36,74.41 19.67,182.52l21.41 130.24c5.95,53.3 2.1,12.35 10.8,39.75 0.78,2.45 2.01,4.86 2.73,7.38 18.69,65.15 18.09,121.83 63.83,249.56l214.37 543.82c6.04,13.96 5.89,18.52 14.29,36.25l131.88 232.04c1.17,1.82 2.87,4.25 4.05,6.06l30.73 50.14c6.62,11.04 12.66,20.09 20.21,30.34l55.19 76.22c6.68,11.24 4.43,9.09 10.51,19.81l224.43 281c7.1,8.3 19.19,20.14 24.8,25.74l238.93 236.16c1.63,1.33 4.08,3.07 5.71,4.4l158.68 134.45c1.64,1.31 3.94,3.21 5.56,4.54l449.92 298.07c1.98,1.07 4.53,2.52 6.5,3.61 1.96,1.08 4.49,2.57 6.44,3.66l236.26 117.5c2.15,0.98 4.76,2.22 6.9,3.21l92.04 39.36c31.88,14.42 32.65,16.45 70.67,30.41l51.98 18.77c2.33,0.87 4.94,1.96 7.26,2.85l413.28 122.4c17.61,2.54 29.02,0.5 46.39,4.15 2.82,0.59 5.35,1.36 8.02,2.09 2.56,0.69 4.98,1.88 7.44,2.67 2.4,0.77 4.74,2.19 7.11,3 2.36,0.81 4.69,2.25 7.09,3.02 35.16,11.31 62.41,2.55 99.3,11.87 21.55,5.44 19.18,8.85 37.94,12.6l330.68 33.16 524.44 -11.3c28.41,-3.2 54.78,-14.84 83.26,-17.81 41.91,-4.37 53.41,3.01 92.46,-8.61l169.22 -32.93c23,-2.7 20.89,0.69 45.38,-5.15 29.74,-7.1 14.02,-7.54 47.11,-13.54l557.21 -190.73c2.98,-1.31 11.04,-4.87 14.13,-6.09 16.68,-6.62 29.38,-9.47 44.89,-15.76 23.5,-9.54 44.75,-21.13 68.11,-32.96l628.65 -402.34c9.8,-7.15 20.54,-14.44 29.2,-21.33l589.98 -633.13c1.2,-1.81 2.79,-4.31 3.96,-6.15l158.41 -245.93c1.24,-1.74 2.97,-4.16 4.2,-5.91 1.22,-1.76 2.9,-4.22 4.11,-6 1.21,-1.78 2.83,-4.28 4.03,-6.07l23.58 -37.08c1.11,-1.94 2.52,-4.53 3.61,-6.5l230.1 -507.85c0.87,-2.38 1.79,-5.07 2.66,-7.45l21.05 -80.04c17.52,-59.95 50.6,-130.18 63.04,-189.7l40.26 -172.04c8.41,-37.02 -1.66,-53.13 10.41,-90.69 8.3,-25.8 3.39,17.58 12.29,-38.26l51.43 -524.83c0,-180.42 -32.86,-375.52 -50.44,-556.15 -6.55,-67.31 -13.13,-23.62 -19.62,-81.47l-123.19 -483.37 -87.52 -215.76c-11.15,-21.46 -4.54,-7.35 -15.46,-35.08l-121.93 -252.1c-3.85,-6.45 -6.85,-11.2 -11.19,-19.14l-141.15 -232.87c-4.68,-6.77 -7.97,-11.87 -12.09,-18.24 -10.37,-16.03 -7.76,-14.2 -20.09,-30.45l-50.59 -70.7c-2.44,-3.68 -11.69,-16.05 -12.82,-17.5l-177.23 -217c-1.39,-1.55 -3.38,-3.78 -4.76,-5.34l-250.29 -255.13c-65.69,-73.23 -152.79,-126.72 -228.54,-185.89 -1.66,-1.29 -3.92,-3.24 -5.52,-4.58l-119.91 -92.36c-1.85,-1.19 -4.48,-2.59 -6.37,-3.73 -1.92,-1.15 -4.62,-2.43 -6.56,-3.55l-815.62 -407.4c-2.32,-0.88 -4.91,-2 -7.23,-2.87l-436.05 -109.74c-2.56,-0.7 -4.98,-1.88 -7.44,-2.67l-198.58 -33.88c-32.8,-0.13 -67.08,3.81 -99.24,-1.82 -31.37,-5.49 -38.88,-17.79 -83.28,-17.79l-475 0c-51.54,0 -80.18,20.48 -172.32,19.7l-251.87 41.23c-59.79,5.33 -108.25,23.41 -161.73,40.42l-684.98 255 -163.28 89.42c-2.43,1.72 -9.24,6.81 -11.76,8.45 -1.83,1.19 -4.35,2.74 -6.23,3.88l-166.67 106.24c-1.66,1.3 -3.98,3.17 -5.71,4.4l-160.72 112.2c-1.82,1.19 -4.36,2.74 -6.21,3.9 -62.79,39.41 -122,96.25 -179.31,144.15l-119.13 113.36c-44.88,34.62 -79.37,82.29 -120.89,121.7l-43.29 47.69c-1.39,1.56 -3.42,3.74 -4.81,5.3l-27.61 33.04c-1.32,1.63 -3.15,4 -4.48,5.63l-306.05 421.77c-1.1,1.96 -2.42,4.63 -3.56,6.54l-356.57 785.75 -44.72 157.46c-7.85,23.55 -10.54,22.87 -14.34,36.21l-27.39 164.7c-6.31,44 -16.39,27.55 -18.88,82.21 -5.43,118.88 -17.96,79.76 -19.96,182.24 -1.95,99.88 -20.17,178.05 -20.17,283.12z"/>
   <path fill="#9B8478" d="M3802.56 2802.9c-5.8,-260.31 -2.13,-526.65 -2.21,-787.55l-0.19 -303.97c-3.07,-41.81 -6.27,-34.15 -17.9,-71.8 -28.14,-91.06 -98.48,-186.76 -187.32,-205.19 -92.62,-19.22 -227.72,47.57 -294.97,90.73 -156.08,100.18 -585.61,525.04 -713.52,660.28l-195.19 200.96c-17.39,18.34 -30.24,31.55 -48.94,50.8l-524.13 567.15c-1.37,1.52 -3.35,3.75 -4.69,5.31l-78.47 93.92c-68.23,68.72 -132.71,141.71 -188.2,206.63 -75.15,87.93 -224.75,223.68 -254.31,332.59 -49.3,181.65 -61.91,310.18 89.35,438.66l73.28 57.33c1.65,1.4 3.76,3.53 5.36,4.95l31.85 28.04c20.06,16.59 31.19,25.89 57.02,44.86l253.69 230.9c61.98,61.81 136.6,127.17 202.02,193.45 155.44,157.48 424.52,400.25 551.67,539.39l339.03 337.73c30.78,28.61 62.22,64.33 95.31,97.06l196.17 197.75c33.96,31.85 18.24,11.93 49.81,52.4 13.23,16.96 35.23,34.58 50.59,48.95 123.89,115.89 93.31,125.18 220.56,164.76 324.04,100.79 327.18,-368.12 335.97,-626.56 4.2,-123.4 14.96,-256 16.12,-373.47 1.22,-123.66 -3.66,-258.22 2.53,-380.21 195.5,-25.73 507.1,14.17 705.19,15.64 243.46,1.81 455.03,17.35 697.36,20.73 116.12,1.62 244.27,19.83 324,-40.46 139.48,-105.48 115.23,-237.22 129.04,-330.99 29.09,-197.6 16.43,-399.71 15.48,-609.37 -0.57,-126.33 -5.49,-238.07 -16.31,-345.88 -11.49,-114.53 5.12,-250.86 -6.48,-362.48 -4.57,-43.98 -23.71,-103.56 -45.93,-135.95l-100.98 -79.91c-170.1,-62.93 -1567.09,3.02 -1761.64,-27.18z"/>
   <path fill="#3C2414" d="M252.66 3814.95l30.32 -485.29c13.98,-44.16 7.47,-37.54 9.98,-91.12l52.69 -260.7c13.67,-49.8 26.05,-105.63 40.2,-161.99l20.93 -80.17c0.67,-2.74 1.3,-5.39 2.05,-8.06l11.02 -29.41c2.99,-7.84 5.15,-13.76 8.21,-22.12 0.87,-2.37 1.86,-5.01 2.71,-7.39l98.29 -265.64c1.34,-2.81 5.8,-10.26 7.17,-13.05l145.52 -299.27c3.09,-4.9 10.14,-15 12.16,-18.17 16.65,-26.17 21.18,-39.84 36.04,-65.06 5.66,-9.61 14.46,-22.54 19.34,-31.2 7.26,-12.9 9.86,-20.36 17.19,-33.35l543.83 -679.29c63.25,-75.64 161.14,-142.31 236.99,-207.77l66.15 -55.14c14.04,-8.66 4.34,-1 18.45,-11.87l152.08 -110.73c25.04,-18.12 32.75,-24.27 60.29,-40.79l18.82 -11.5c1.83,-1.17 4.3,-2.8 6.12,-3.98l78.11 -53.29c1.89,-1.15 4.47,-2.59 6.42,-3.69l299.47 -155.37c2.13,-0.99 4.77,-2.22 6.89,-3.23l159.46 -73.01c2.33,-0.89 4.97,-1.92 7.31,-2.8l291.37 -102.81c2.4,-0.83 5.02,-1.85 7.39,-2.71l14.4 -5.82c31.4,-11.33 9.49,-4.39 48.66,-11.98l47.3 -13.35c2.56,-0.77 5.13,-1.65 7.73,-2.38l106.95 -24.43c52.15,-8.13 37.09,-14.96 75.66,-25.41l186.93 -25.31c52.98,-5.7 33.76,-16.91 91.12,-20.05 32.17,-1.76 69.68,2.54 101.85,0.79 59.16,-3.21 45.89,-20.62 90.56,-20.62l485.1 0c44.39,0 51.91,12.3 83.28,17.79 35.35,6.19 73.33,1.6 109.37,1.8 75.24,0.43 44.57,10.58 92.12,19.06 42.54,7.59 55.32,4.23 97.07,14.1 28.74,6.8 68.3,4.19 98.74,12.43l263.4 70.14c2.7,0.69 5.31,1.41 7.94,2.16l15 5.22c2.43,0.8 4.94,1.93 7.38,2.72l299.98 104.31c2.33,0.88 4.96,1.94 7.27,2.83l444.73 222.37c2,1.08 4.61,2.42 6.63,3.48l244.15 160.17c10.3,7.56 19.47,13.44 30.5,20.03l476.66 412.85c14.56,14.98 14.13,14.88 28.48,32.17 4.04,4.87 20.52,25.75 22.68,27.87 27.81,27.28 -11.68,15.43 39.6,21.04 4.15,37.88 3.47,18.07 10.72,29.72l280.3 366.65c7.41,11.6 11.91,20.13 19.47,31.07l55.61 85.91c6.46,11.19 13.07,21 19.34,31.2l155.91 288.89c1.07,1.97 2.66,4.41 3.69,6.42l105.02 248.8c35.11,65.04 49.05,138.77 70.3,202.65 0.82,2.46 1.8,5.04 2.58,7.53 4.58,14.5 6.81,25.86 11.07,39.48l84.62 360.2c3.34,35.21 -3.6,-12.16 1.79,18.43 9.03,51.25 14.74,19.18 18.43,113 1.84,46.9 12.08,50.73 17.76,83.33l22.65 462.63c0,82.88 -7.81,128.71 -10.12,202.19 -3.64,116.13 -27.7,207.19 -30.2,283.2 -2.14,64.99 -12.05,46.02 -18.75,92.46l-28.69 173.5c-0.99,3.17 -4.77,11.3 -5.82,14.39 -37.7,110.48 -57.25,228.26 -97.48,337.23l-138.72 346.51c-5.73,10.82 -1.51,2.11 -7.86,12.35l-165.13 299.87c-7.67,13.35 -9.73,18.44 -17.83,32.71l-15.41 25.03c-1.18,1.81 -2.91,4.21 -4.1,6 -1.19,1.8 -2.94,4.18 -4.13,5.98l-154.51 219.5c-5.63,8.84 -6.61,12.01 -11.26,19.07l-39.96 51.02c-1.3,1.67 -3.03,4.11 -4.35,5.76l-371.17 397.06c-10.22,10.95 -4.03,5.5 -14.42,15.9l-543.91 406.24c-2.69,1.46 -10.28,5.79 -12.96,7.26 -10.89,5.98 -22.23,11.72 -32.62,17.92 -1.89,1.13 -4.41,2.67 -6.28,3.83l-353.25 182.45c-2.97,1.18 -11.58,4.48 -14.56,5.65 -15.44,6.08 -4.77,1.93 -21.68,8.65 -31.62,12.57 -49.31,19.99 -79.37,31.81 -2.98,1.17 -11.5,4.56 -14.52,5.7l-147.69 54.46c-95.05,34.58 -438.97,131.54 -513.34,133.51l-94.45 16.73c-34.04,8.28 -71.56,0.02 -106.78,4.38 -100.1,12.41 -39.31,19.98 -193.24,19 -79.76,-0.5 -125.99,10.27 -212.1,10.27l-303.66 -9.67c-61.68,-0.44 -48.31,-6.19 -94.71,-16.47 -35.71,-7.92 -61.54,-1.24 -96.65,-4.42 -52.25,-4.72 -31.8,-17.43 -91.06,-20.11 -15.93,-0.72 -34.64,1.41 -50.28,-0.25l-307.52 -76.55c-3.2,-0.95 -11.78,-4.29 -14.93,-5.28 -2.49,-0.78 -5.01,-1.82 -7.52,-2.58l-324.39 -110.22c-2.34,-0.88 -4.95,-1.94 -7.3,-2.81l-30 -10.43c-7.74,-2.8 -14.35,-5.38 -21.98,-8.34 -11.72,-4.55 -28.54,-11.26 -36.17,-14.37 -6.77,-2.76 -33.12,-14.23 -42.02,-18.63l-556.17 -313.09c-4.2,-2.99 -24.41,-20.32 -27.7,-22.83l-30.46 -20.08c-9.93,-6.71 -19.44,-14.33 -28.51,-22.03l-142.54 -110.17c-1.57,-1.37 -3.86,-3.29 -5.48,-4.63 -1.62,-1.34 -3.96,-3.19 -5.61,-4.49l-34.65 -26c-14.48,-11.75 -14.5,-12.35 -27.2,-23.35l-31.91 -28.74c-1.46,-1.48 -3.49,-3.68 -4.92,-5.19l-76.9 -74.72c-2.09,-2.06 -7.96,-8.11 -10.09,-10.12 -1.51,-1.43 -3.72,-3.44 -5.26,-4.85l-205.74 -208.7c-1.52,-1.43 -3.82,-3.35 -5.31,-4.8l-36.96 -43.91c-1.85,-2.3 -7.28,-8.78 -9.12,-11.09l-77.24 -94.6c-61.15,-70.58 -108.31,-155.09 -164.34,-229.89l-70.88 -111.08c-1.23,-1.74 -3.06,-4.07 -4.27,-5.83l-199.35 -376.85c-0.96,-2.25 -1.89,-5.01 -2.83,-7.28l-246.09 -825.49c-6.5,-39.06 -7.46,-12.43 -15.3,-45.36 -8.43,-35.39 1.42,-66.02 -8.13,-103.07 -19.98,-77.5 -9.46,-115.63 -15.92,-196.39 -5.57,-69.63 -19.7,-119.52 -19.7,-202.72zm970.2 -2810.63c-47.01,3.91 -72.98,45.48 -105.06,76.89l-457.27 543.47c-11.63,16.4 -14.4,21.67 -24.35,36.3l-73.26 108.69c-1.15,1.9 -2.53,4.53 -3.65,6.46l-215.67 400.96c-0.99,2.14 -2.24,4.74 -3.22,6.89l-81.63 181.21c-0.96,2.16 -2.3,4.69 -3.23,6.88l-40.46 111.18c-0.95,2.2 -2.24,4.72 -3.13,6.99l-57.83 174.68c-14.45,42.77 -13.77,40.91 -23.59,87.62 -0.61,2.93 -0.96,5.61 -1.65,8.46 -0.66,2.73 -1.38,5.33 -2.12,7.98l-8.23 22.1c-20.16,60.19 -23.44,128.34 -45,187.52 -6.67,18.33 -9.16,32.59 -11.43,49.23 -16.05,117.92 -39.06,188.36 -41.35,302.38 -1.35,67.43 -20.74,55.09 -20.74,100.57l0 677.39c0,33.44 19.08,8.61 20.89,80.2l16.11 145.65c15.67,66.8 14.17,162.85 37.99,224.86 23.08,60.06 32.67,129.63 50.32,192.31l231.95 637.44c0.96,2.16 2.19,4.79 3.21,6.9 1.01,2.08 2.36,4.66 3.42,6.69l55.51 106.23c1.53,2.62 6.05,10.02 7.6,12.61l76.78 135.5c5.3,8.33 6.73,10.68 11.88,18.44 10.49,15.78 13.57,17.57 25.33,35.32l20.5 40.15c1.04,2.06 2.28,4.74 3.37,6.74 8.2,14.98 0.86,1.75 11.91,18.42l12.31 18.01c1.16,1.89 2.57,4.5 3.69,6.41 1.13,1.93 2.45,4.59 3.57,6.54l167.2 237.14c9.37,10.4 5.01,4.89 14.63,15.69l94.57 117.7c8.14,10.15 4.83,7.17 12.97,17.35l75.13 86.6c1.37,1.58 3.37,3.8 4.76,5.35 1.39,1.55 3.41,3.76 4.82,5.29l258.09 257.43c9.24,7.06 8.35,5.72 17.62,12.71l84.76 76.97c42.51,38.17 74.74,56.7 117.98,94.29l216.15 157.85c4.04,2.96 9.8,7.8 17.4,12.93 1.79,1.2 4.2,2.91 6.04,4.07l76.35 44.94c26.85,16.7 42.93,24.58 70.16,41.03l344.27 181.33c2.03,1.04 4.55,2.49 6.58,3.53 29.32,15.02 45.82,21.78 75.9,35.29l107.24 44.37c31.28,12.15 12.35,4.98 46.24,14.41l279.29 94.68c29.55,8.35 -1.47,0.01 22.72,7.61l23.39 6.93c18.59,4.63 24.68,4.89 41.03,9.51l82.82 18.25c20.8,6.58 9.24,8.39 42.35,18.3 61.03,18.26 126.77,15.99 188.29,34.06 44.12,12.96 29.63,12.38 88.53,12.54 69.37,0.18 51.48,8.92 93.54,17.63 35.09,7.26 72.91,0.46 108.84,2.33 59.24,3.09 45.74,20.61 90.57,20.61l535.63 0c45.26,0 33.23,-19.28 100.51,-20.78 132.16,-2.94 100.11,-13.92 223.12,-19.43l421.63 -93.83c155.63,-38.98 371.83,-118.57 518.33,-189.18l131.54 -60.5c2.01,-1.06 4.62,-2.41 6.62,-3.48l191.91 -101.22c2.01,-1.06 4.64,-2.39 6.62,-3.48l631.76 -459.9 321.05 -325.87c25.24,-25.55 30.68,-15.44 34.12,-56.86 44.84,-4.91 13.89,2.54 36.02,-14.52l139.58 -183.89c48.31,-64.98 100.57,-130.78 139.49,-204.21 13.56,-25.57 24.53,-40.72 42.8,-68.39l225.82 -431.26c1.01,-2.12 2.22,-4.77 3.2,-6.91 1.31,-2.84 5.02,-11.05 6.29,-13.93l220.48 -689.35c8.36,-32.93 8.39,-13.15 13.32,-47.34 2.54,-17.62 0.5,-29.02 4.14,-46.41 0.59,-2.81 1.36,-5.34 2.08,-8.02 16.44,-60.63 9.52,-82.12 19.04,-122.49 8.94,-37.86 17.33,-12.17 17.45,-83.65 0.16,-96.18 20.46,-111.22 20.05,-192.26 -0.81,-163.22 13.71,-352.26 0.12,-516.55 -2.87,-34.75 0.21,-75.85 0,-111.22 -0.42,-71.35 -12.65,-54.61 -19.6,-101.71 -4.91,-33.34 3.17,-76.25 -2.58,-108.63 -6.87,-38.65 -7.75,-12.78 -15.46,-45.2 -5.43,-22.87 -2.52,-34.51 -3.13,-57.53 -1.65,-61.7 -58.17,-261.6 -74.2,-330.18l-67.63 -225.54c-5.02,-14.91 -5.67,-19.36 -11.9,-38.65 -7.62,-23.61 2.61,2.49 -7.88,-22.45l-201.18 -466c-5.59,-11.26 -15.41,-27.76 -21.89,-38.77l-132.11 -231.8c-1.18,-1.8 -2.96,-4.17 -4.17,-5.94l-32.48 -48.39c-1.14,-1.91 -2.54,-4.52 -3.68,-6.43l-248.4 -337.9c-16.22,-21.87 -4.98,-8.36 -23.27,-27.28l-42.69 -48.29c-21.84,-28.76 -145.31,-167.37 -225.74,-239.24 -7.94,-7.09 -8.92,-7.59 -16.28,-14.05l-191.24 -172.65c-1.57,-1.37 -3.83,-3.33 -5.42,-4.69l-235.27 -179.16c-1.64,-1.3 -3.84,-3.31 -5.48,-4.62l-114.46 -77.59c-26.53,-18.26 -44.91,-24.19 -70.58,-40.61l-36.32 -24.32c-9.3,-5.43 -10.08,-5.07 -19.67,-10.65 -1.77,-1.03 -17.67,-11.01 -18.67,-11.65l-422.92 -213.86c-13.18,-5.65 -27.66,-10.57 -43.34,-17.31 -27.48,-11.81 -51.3,-20.71 -79.53,-31.65l-301.68 -102.61c-13.13,-3.38 -11.73,-2.53 -24.04,-6.28l-112.14 -29.35c-2.63,-0.76 -5.22,-1.51 -7.93,-2.18 -154.11,-38.41 -329.73,-58.59 -485.26,-90.84 -70.85,-14.69 -153.87,5.23 -224.22,-8.22 -115.68,-22.12 -259.85,-26.02 -375.13,-0.28 -64.17,14.32 -140.1,1.69 -206.83,5.4 -58.39,3.24 -38.67,15.46 -90.93,20.25 -80.37,7.37 -113.58,11.26 -189.01,23.23 -27.22,4.32 -53.42,17.01 -78.11,22.96 -24.43,5.89 -22.17,2.61 -45.69,4.84l-963.85 350.1c-11.2,5.56 -10.72,5.15 -19.98,10.35l-31.06 19.48c-34.31,20.75 23.43,-12.63 -12.76,7.45 -9.93,5.51 -9.39,4.69 -20.1,10.22l-220.09 133.68c-7.44,5.36 -16.24,12.63 -17.08,13.25 -1.7,1.26 -4.03,3.11 -5.76,4.34 -1.74,1.24 -4.15,2.98 -5.93,4.19l-290.72 214.68c-22.51,15.34 -12.97,5.35 -35.04,25.6l-59.19 52c-27.67,20.76 -43.31,33.22 -46.73,64.46z"/>
   <path fill="#FAF9F9" d="M3802.56 2802.9c194.55,30.2 1591.54,-35.74 1761.64,27.18l100.98 79.91c22.21,32.39 41.35,91.97 45.93,135.95 11.6,111.61 -5.01,247.95 6.48,362.48 10.81,107.81 15.73,219.55 16.31,345.88 0.95,209.66 13.61,411.77 -15.48,609.37 -13.81,93.77 10.44,225.5 -129.04,330.99 -79.72,60.29 -207.88,42.08 -324,40.46 -242.33,-3.39 -453.9,-18.93 -697.36,-20.73 -198.09,-1.47 -509.69,-41.37 -705.19,-15.64 -6.19,122 -1.31,256.55 -2.53,380.21 -1.16,117.47 -11.92,250.07 -16.12,373.47 -8.8,258.44 -11.94,727.35 -335.97,626.56 -127.24,-39.58 -96.67,-48.87 -220.56,-164.76 -15.36,-14.37 -37.36,-31.98 -50.59,-48.95 -31.57,-40.48 -15.85,-20.55 -49.81,-52.4l-196.17 -197.75c-33.09,-32.73 -64.54,-68.46 -95.31,-97.06l-339.03 -337.73c-127.15,-139.14 -396.22,-381.91 -551.67,-539.39 -65.42,-66.28 -140.04,-131.63 -202.02,-193.45l-253.69 -230.9c-25.83,-18.97 -36.96,-28.26 -57.02,-44.86l-31.85 -28.04c-1.6,-1.42 -3.71,-3.55 -5.36,-4.95l-73.28 -57.33c-151.26,-128.48 -138.65,-257.02 -89.35,-438.66 29.56,-108.91 179.16,-244.66 254.31,-332.59 55.49,-64.93 119.97,-137.92 188.2,-206.63l78.47 -93.92c1.34,-1.56 3.32,-3.78 4.69,-5.31l524.13 -567.15c18.69,-19.25 31.55,-32.46 48.94,-50.8l195.19 -200.96c127.91,-135.24 557.44,-560.1 713.52,-660.28 67.25,-43.16 202.35,-109.95 294.97,-90.73 88.84,18.44 159.18,114.13 187.32,205.19 11.63,37.65 14.83,29.99 17.9,71.8l0.19 303.97c0.08,260.9 -3.59,527.24 2.21,787.55zm127.92 2602.55l10.37 -612.33c64.11,-29.81 212.21,-13.11 295.65,-11.08 38.94,0.94 280.54,19.72 297.74,25.61 220.64,-14.49 455.5,8.8 660.11,17.59 236.74,10.17 407.71,30.88 530.14,-136.85 94.33,-129.24 99.94,-369.5 100.61,-570.11 0.74,-222.43 0.47,-444.94 -4.72,-667.28 -2.7,-115.78 -17.98,-200 -17.41,-313.38 1.11,-218.07 -46.36,-347.58 -257.92,-410.39 -139.18,-41.32 -1370.64,6.8 -1651.44,-14.5 -9.48,-315.42 -1.21,-667.48 -2.04,-990.78 -0.35,-136.37 -92.76,-299.36 -222.03,-353.59 -132.73,-55.67 -234.69,-14.52 -343.37,39.88l-13.62 6.7c-2.12,1.04 -4.73,2.29 -6.86,3.33 -73.07,35.57 -329.45,243.49 -385.12,303.04 -1.42,1.52 -3.44,3.75 -4.87,5.28l-584.32 588.65c-64.85,65.8 -123.18,133.01 -189.91,203.65l-463.74 507.46c-30.94,33.13 -63.85,66.41 -92.2,99.98l-69.06 83c-11.49,12.72 -5.89,6.32 -14.73,15.57 -1.42,1.48 -3.47,3.67 -4.89,5.14 -1.42,1.47 -3.53,3.59 -4.95,5.05l-92.08 99.02c-42.17,49.95 -148.33,162.18 -169.81,214.48 -85.96,209.22 -106.91,422.42 68.01,584.89 40.5,37.62 74.62,52.3 114.7,88.73l1686.62 1628.52c7.77,7.71 5.84,5.97 15.22,15.46l129.87 132.05c13.98,14.83 28.41,28.15 45.35,45.4 30.34,30.92 62.96,73.73 107.09,94.47 154.5,72.61 318.16,69.47 422.15,-70.36 96.22,-129.39 129.87,-583.33 111.45,-662.29z"/>
   <path fill="#C1B7B2" d="M3930.48 5405.44c21.09,-34.78 22.55,-207.45 25.11,-296.39 2.37,-82.08 -6.06,-232.77 6.08,-304.34 142.8,-26.49 410.94,15.47 572.57,2.92 -17.2,-5.89 -258.81,-24.67 -297.74,-25.61 -83.44,-2.02 -231.54,-18.73 -295.65,11.08l-10.37 612.33z"/>
  </g>
 </g>
</svg>
