<svg width="237" height="91" viewBox="0 0 237 91" fill="none" xmlns="http://www.w3.org/2000/svg">
<path d="M40.7217 40.4258C40.7217 40.2572 40.7604 40.1113 40.8379 39.9883C40.9154 39.8607 41.0407 39.7969 41.2139 39.7969H42.1641L46.6895 29.5771C46.7578 29.4176 46.8604 29.2741 46.9971 29.1465C47.1338 29.0143 47.3115 28.9482 47.5303 28.9482C47.7581 28.9482 47.9313 29.0166 48.0498 29.1533C48.1729 29.2855 48.2686 29.4359 48.3369 29.6045L52.4453 39.7969H53.6621C53.8353 39.7969 53.9583 39.8607 54.0312 39.9883C54.1087 40.1113 54.1475 40.2572 54.1475 40.4258C54.1475 40.5762 54.1042 40.7106 54.0176 40.8291C53.931 40.943 53.8079 41 53.6484 41H49.2393C49.0798 41 48.9544 40.943 48.8633 40.8291C48.7767 40.7106 48.7334 40.5762 48.7334 40.4258C48.7334 40.2572 48.7721 40.1113 48.8496 39.9883C48.9271 39.8607 49.0524 39.7969 49.2256 39.7969H50.7227L49.7109 37.124H44.7549L43.6816 39.7969H44.9531C45.1263 39.7969 45.2516 39.8607 45.3291 39.9883C45.4066 40.1113 45.4453 40.2572 45.4453 40.4258C45.4453 40.5762 45.3997 40.7106 45.3086 40.8291C45.222 40.943 45.099 41 44.9395 41H41.2275C41.068 41 40.9427 40.943 40.8516 40.8291C40.765 40.7106 40.7217 40.5762 40.7217 40.4258ZM45.1787 36.0713H49.3213L47.3184 30.7529L45.1787 36.0713ZM62.2549 37.0215C62.2549 36.2148 62.0521 35.5176 61.6465 34.9297C61.2454 34.3372 60.6507 34.041 59.8623 34.041C59.2607 34.041 58.7412 34.1549 58.3037 34.3828C57.8708 34.6107 57.5176 34.9023 57.2441 35.2578V39.0654C57.5312 39.3525 57.889 39.5827 58.3174 39.7559C58.7503 39.9245 59.2516 40.0088 59.8213 40.0088C60.6188 40.0088 61.2227 39.7126 61.6328 39.1201C62.0475 38.5231 62.2549 37.8236 62.2549 37.0215ZM63.7656 37.0215C63.7656 38.2337 63.4079 39.2295 62.6924 40.0088C61.9769 40.7835 61.0199 41.1709 59.8213 41.1709C59.2607 41.1709 58.7708 41.0866 58.3516 40.918C57.9368 40.7493 57.5677 40.5283 57.2441 40.2549V43.7275H58.625C58.7982 43.7275 58.9235 43.7913 59.001 43.9189C59.0785 44.0465 59.1172 44.1947 59.1172 44.3633C59.1172 44.5137 59.0716 44.6458 58.9805 44.7598C58.8939 44.8737 58.7708 44.9307 58.6113 44.9307H55.0293C54.8379 44.9307 54.6966 44.876 54.6055 44.7666C54.5143 44.6572 54.4688 44.516 54.4688 44.3428C54.4688 44.1742 54.5098 44.0283 54.5918 43.9053C54.6784 43.7868 54.8105 43.7275 54.9883 43.7275H55.8428V34.3076L54.8652 34.5469C54.8561 34.5514 54.8424 34.556 54.8242 34.5605C54.806 34.5605 54.7855 34.5605 54.7627 34.5605C54.626 34.5605 54.4984 34.5059 54.3799 34.3965C54.2614 34.2826 54.2021 34.1549 54.2021 34.0137C54.2021 33.8587 54.2363 33.7357 54.3047 33.6445C54.373 33.5488 54.471 33.4805 54.5986 33.4395L56.499 32.8926C56.5173 32.8926 56.5286 32.8903 56.5332 32.8857C56.5378 32.8812 56.5492 32.8789 56.5674 32.8789H56.6152C56.7109 32.8789 56.793 32.9085 56.8613 32.9678C56.9297 33.0225 56.9639 33.0999 56.9639 33.2002L57.1006 34.4922C57.3193 34.0273 57.6839 33.6423 58.1943 33.3369C58.7048 33.0316 59.2926 32.8789 59.958 32.8789C61.152 32.8789 62.084 33.2708 62.7539 34.0547C63.4284 34.834 63.7656 35.8229 63.7656 37.0215ZM73.4316 39.8516C73.4316 40.2161 73.1901 40.5283 72.707 40.7881C72.224 41.0433 71.8275 41.1709 71.5176 41.1709C71.1439 41.1709 70.8431 41.0798 70.6152 40.8975C70.3874 40.7152 70.2324 40.4372 70.1504 40.0635C69.8177 40.4463 69.3825 40.7311 68.8447 40.918C68.307 41.1003 67.7327 41.1914 67.1221 41.1914C66.4248 41.1914 65.8415 40.9795 65.3721 40.5557C64.9072 40.1318 64.6748 39.5804 64.6748 38.9014C64.6748 37.68 65.2718 36.9326 66.4658 36.6592C67.6598 36.3857 68.8265 36.1989 69.9658 36.0986V34.9912C69.9658 34.6357 69.8132 34.3896 69.5078 34.2529C69.2025 34.1117 68.8743 34.041 68.5234 34.041C67.8854 34.041 67.4001 34.1094 67.0674 34.2461C66.7393 34.3828 66.3564 34.5902 65.9189 34.8682C65.8779 34.891 65.8369 34.9092 65.7959 34.9229C65.7594 34.9365 65.7207 34.9434 65.6797 34.9434C65.5247 34.9434 65.3857 34.8704 65.2627 34.7246C65.1396 34.5788 65.0781 34.4261 65.0781 34.2666C65.0781 33.7197 65.4769 33.3529 66.2744 33.166C67.0765 32.9746 67.7601 32.8789 68.3252 32.8789C69.4782 32.8789 70.2666 33.125 70.6904 33.6172C71.1143 34.1048 71.3262 34.9183 71.3262 36.0576V39.5029C71.3262 39.6442 71.349 39.7627 71.3945 39.8584C71.4447 39.9495 71.5221 39.9951 71.627 39.9951C71.832 39.9951 72.0622 39.8721 72.3174 39.626C72.5726 39.3799 72.7822 39.2568 72.9463 39.2568C73.0465 39.2568 73.1514 39.3252 73.2607 39.4619C73.3747 39.5941 73.4316 39.724 73.4316 39.8516ZM69.9658 37.124C69.2458 37.2015 68.4277 37.32 67.5117 37.4795C66.6003 37.6344 66.1445 38.0947 66.1445 38.8604C66.1445 39.2477 66.2881 39.5371 66.5752 39.7285C66.8623 39.9154 67.2041 40.0088 67.6006 40.0088C68.0745 40.0088 68.5075 39.9222 68.8994 39.749C69.2959 39.5713 69.6514 39.3594 69.9658 39.1133V37.124ZM76.3779 29.1123C76.4736 29.1123 76.5579 29.1442 76.6309 29.208C76.7038 29.2673 76.7402 29.347 76.7402 29.4473V36.7617C77.2689 36.4062 77.8226 36.0303 78.4014 35.6338C78.9801 35.2373 79.527 34.8704 80.042 34.5332C80.0511 34.5332 79.9508 34.5332 79.7412 34.5332C79.5316 34.5332 79.3903 34.5332 79.3174 34.5332C79.1396 34.5332 79.0075 34.474 78.9209 34.3555C78.8389 34.2324 78.7979 34.0866 78.7979 33.918C78.7979 33.7448 78.8434 33.6035 78.9346 33.4941C79.0257 33.3848 79.167 33.3301 79.3584 33.3301H82.5234C82.6829 33.3301 82.806 33.3551 82.8926 33.4053C82.9837 33.4508 83.0293 33.5488 83.0293 33.6992C83.0293 33.8678 82.9906 34.0501 82.9131 34.2461C82.8356 34.4375 82.7103 34.5332 82.5371 34.5332H81.7783C81.596 34.5332 81.4365 34.5833 81.2998 34.6836C81.1676 34.7839 81.0423 34.8773 80.9238 34.9639L78.9414 36.4609L80.9238 39.0107C81.1699 39.3525 81.4092 39.5553 81.6416 39.6191C81.874 39.6829 82.209 39.7148 82.6465 39.7148H82.749C83.0498 39.7148 83.2572 39.7559 83.3711 39.8379C83.485 39.9154 83.542 40.084 83.542 40.3438C83.542 40.6126 83.46 40.7904 83.2959 40.877C83.1318 40.959 82.8971 41 82.5918 41H79.6113C79.4382 41 79.3083 40.9408 79.2217 40.8223C79.1351 40.6992 79.0918 40.5534 79.0918 40.3848C79.0918 40.2116 79.1351 40.0703 79.2217 39.9609C79.3128 39.8516 79.4564 39.7969 79.6523 39.7969H80.0557L77.998 37.042L76.7402 37.8076V39.7969H77.7793C77.9525 39.7969 78.0755 39.8607 78.1484 39.9883C78.2259 40.1113 78.2646 40.2572 78.2646 40.4258C78.2646 40.5762 78.2214 40.7106 78.1348 40.8291C78.0482 40.943 77.9251 41 77.7656 41H74.3203C74.1289 41 73.9876 40.9453 73.8965 40.8359C73.8053 40.7266 73.7598 40.5853 73.7598 40.4121C73.7598 40.2435 73.8008 40.0999 73.8828 39.9814C73.9694 39.8584 74.1016 39.7969 74.2793 39.7969H75.3389V30.582L73.7324 31.0059C73.7142 31.0059 73.7005 31.0081 73.6914 31.0127C73.6868 31.0173 73.6755 31.0195 73.6572 31.0195C73.516 31.0195 73.3906 30.958 73.2812 30.835C73.1719 30.7074 73.1172 30.5729 73.1172 30.4316C73.1172 30.2357 73.1673 30.1081 73.2676 30.0488C73.3678 29.985 73.4932 29.9303 73.6436 29.8848L76.2754 29.126C76.2845 29.1214 76.2982 29.1191 76.3164 29.1191C76.3346 29.1146 76.3551 29.1123 76.3779 29.1123ZM92.709 39.8516C92.709 40.2161 92.4674 40.5283 91.9844 40.7881C91.5013 41.0433 91.1048 41.1709 90.7949 41.1709C90.4212 41.1709 90.1204 41.0798 89.8926 40.8975C89.6647 40.7152 89.5098 40.4372 89.4277 40.0635C89.0951 40.4463 88.6598 40.7311 88.1221 40.918C87.5843 41.1003 87.0101 41.1914 86.3994 41.1914C85.7021 41.1914 85.1188 40.9795 84.6494 40.5557C84.1846 40.1318 83.9521 39.5804 83.9521 38.9014C83.9521 37.68 84.5492 36.9326 85.7432 36.6592C86.9372 36.3857 88.1038 36.1989 89.2432 36.0986V34.9912C89.2432 34.6357 89.0905 34.3896 88.7852 34.2529C88.4798 34.1117 88.1517 34.041 87.8008 34.041C87.1628 34.041 86.6774 34.1094 86.3447 34.2461C86.0166 34.3828 85.6338 34.5902 85.1963 34.8682C85.1553 34.891 85.1143 34.9092 85.0732 34.9229C85.0368 34.9365 84.998 34.9434 84.957 34.9434C84.8021 34.9434 84.6631 34.8704 84.54 34.7246C84.417 34.5788 84.3555 34.4261 84.3555 34.2666C84.3555 33.7197 84.7542 33.3529 85.5518 33.166C86.3538 32.9746 87.0374 32.8789 87.6025 32.8789C88.7555 32.8789 89.5439 33.125 89.9678 33.6172C90.3916 34.1048 90.6035 34.9183 90.6035 36.0576V39.5029C90.6035 39.6442 90.6263 39.7627 90.6719 39.8584C90.722 39.9495 90.7995 39.9951 90.9043 39.9951C91.1094 39.9951 91.3395 39.8721 91.5947 39.626C91.8499 39.3799 92.0596 39.2568 92.2236 39.2568C92.3239 39.2568 92.4287 39.3252 92.5381 39.4619C92.652 39.5941 92.709 39.724 92.709 39.8516ZM89.2432 37.124C88.5231 37.2015 87.7051 37.32 86.7891 37.4795C85.8776 37.6344 85.4219 38.0947 85.4219 38.8604C85.4219 39.2477 85.5654 39.5371 85.8525 39.7285C86.1396 39.9154 86.4814 40.0088 86.8779 40.0088C87.3519 40.0088 87.7848 39.9222 88.1768 39.749C88.5732 39.5713 88.9287 39.3594 89.2432 39.1133V37.124ZM98.3555 34.041C97.8359 34.041 97.3734 34.1982 96.9678 34.5127C96.5667 34.8226 96.25 35.1644 96.0176 35.5381V39.7969H97.1387C97.3164 39.7969 97.4303 39.8584 97.4805 39.9814C97.5306 40.0999 97.5557 40.2435 97.5557 40.4121C97.5557 40.5488 97.5192 40.681 97.4463 40.8086C97.3734 40.9362 97.2663 41 97.125 41H93.7822C93.5863 41 93.4495 40.9499 93.3721 40.8496C93.2992 40.7448 93.2627 40.6035 93.2627 40.4258C93.2627 40.2572 93.2969 40.1113 93.3652 39.9883C93.4336 39.8607 93.5566 39.7969 93.7344 39.7969H94.6162V30.582L93.0098 31.0059C92.9915 31.0059 92.9801 31.0081 92.9756 31.0127C92.971 31.0173 92.9596 31.0195 92.9414 31.0195C92.8001 31.0195 92.6748 30.958 92.5654 30.835C92.4515 30.7074 92.3945 30.5729 92.3945 30.4316C92.3945 30.2357 92.4469 30.1081 92.5518 30.0488C92.652 29.985 92.7773 29.9303 92.9277 29.8848L95.5596 29.126C95.5687 29.1214 95.5801 29.1191 95.5938 29.1191C95.612 29.1146 95.6325 29.1123 95.6553 29.1123C95.751 29.1123 95.8353 29.1442 95.9082 29.208C95.9811 29.2673 96.0176 29.347 96.0176 29.4473V34.1367C96.2819 33.8223 96.6396 33.5352 97.0908 33.2754C97.542 33.0111 98.0479 32.8789 98.6084 32.8789C99.4606 32.8789 100.137 33.1296 100.639 33.6309C101.145 34.1322 101.397 34.8112 101.397 35.668V39.7969H102.512C102.689 39.7969 102.803 39.8584 102.854 39.9814C102.908 40.0999 102.936 40.2435 102.936 40.4121C102.936 40.5488 102.897 40.681 102.819 40.8086C102.746 40.9362 102.639 41 102.498 41H99.1553C98.9593 41 98.8226 40.9499 98.7451 40.8496C98.6722 40.7448 98.6357 40.6035 98.6357 40.4258C98.6357 40.2572 98.6699 40.1113 98.7383 39.9883C98.8112 39.8607 98.9365 39.7969 99.1143 39.7969H100.01V35.791C100.01 35.2487 99.8708 34.8226 99.5928 34.5127C99.3193 34.1982 98.9069 34.041 98.3555 34.041ZM106.347 40.4258C106.347 40.2572 106.385 40.1113 106.463 39.9883C106.54 39.8607 106.666 39.7969 106.839 39.7969H107.789L112.314 29.5771C112.383 29.4176 112.485 29.2741 112.622 29.1465C112.759 29.0143 112.937 28.9482 113.155 28.9482C113.383 28.9482 113.556 29.0166 113.675 29.1533C113.798 29.2855 113.894 29.4359 113.962 29.6045L118.07 39.7969H119.287C119.46 39.7969 119.583 39.8607 119.656 39.9883C119.734 40.1113 119.772 40.2572 119.772 40.4258C119.772 40.5762 119.729 40.7106 119.643 40.8291C119.556 40.943 119.433 41 119.273 41H114.864C114.705 41 114.579 40.943 114.488 40.8291C114.402 40.7106 114.358 40.5762 114.358 40.4258C114.358 40.2572 114.397 40.1113 114.475 39.9883C114.552 39.8607 114.677 39.7969 114.851 39.7969H116.348L115.336 37.124H110.38L109.307 39.7969H110.578C110.751 39.7969 110.877 39.8607 110.954 39.9883C111.032 40.1113 111.07 40.2572 111.07 40.4258C111.07 40.5762 111.025 40.7106 110.934 40.8291C110.847 40.943 110.724 41 110.564 41H106.853C106.693 41 106.568 40.943 106.477 40.8291C106.39 40.7106 106.347 40.5762 106.347 40.4258ZM110.804 36.0713H114.946L112.943 30.7529L110.804 36.0713ZM125.713 34.041C125.102 34.041 124.521 34.2438 123.97 34.6494C123.423 35.0505 123.149 35.5563 123.149 36.167V39.7969H124.147C124.321 39.7969 124.444 39.8607 124.517 39.9883C124.594 40.1113 124.633 40.2572 124.633 40.4258C124.633 40.5762 124.59 40.7106 124.503 40.8291C124.416 40.943 124.293 41 124.134 41H120.941C120.75 41 120.609 40.9453 120.518 40.8359C120.426 40.7266 120.381 40.5853 120.381 40.4121C120.381 40.2435 120.422 40.0999 120.504 39.9814C120.59 39.8584 120.723 39.7969 120.9 39.7969H121.748V34.3076L120.771 34.5469C120.761 34.5514 120.748 34.556 120.729 34.5605C120.716 34.5605 120.698 34.5605 120.675 34.5605C120.538 34.5605 120.41 34.5059 120.292 34.3965C120.174 34.2826 120.114 34.1549 120.114 34.0137C120.114 33.8587 120.146 33.7357 120.21 33.6445C120.278 33.5488 120.376 33.4805 120.504 33.4395L122.411 32.8926C122.429 32.8926 122.441 32.8903 122.445 32.8857C122.45 32.8812 122.461 32.8789 122.479 32.8789H122.521C122.616 32.8789 122.698 32.9085 122.767 32.9678C122.835 33.0225 122.869 33.0999 122.869 33.2002L123.013 34.4922C123.245 34.0729 123.635 33.6992 124.182 33.3711C124.733 33.043 125.328 32.8789 125.966 32.8789C126.818 32.8789 127.495 33.1296 127.996 33.6309C128.497 34.1322 128.748 34.8112 128.748 35.668V39.7969H129.603C129.776 39.7969 129.901 39.8607 129.979 39.9883C130.056 40.1113 130.095 40.2572 130.095 40.4258C130.095 40.5762 130.049 40.7106 129.958 40.8291C129.871 40.943 129.748 41 129.589 41H126.26C126.068 41 125.927 40.9453 125.836 40.8359C125.745 40.7266 125.699 40.5853 125.699 40.4121C125.699 40.2435 125.74 40.0999 125.822 39.9814C125.909 39.8584 126.041 39.7969 126.219 39.7969H127.367V35.791C127.367 35.2487 127.228 34.8226 126.95 34.5127C126.677 34.1982 126.264 34.041 125.713 34.041ZM132.323 37.0215C132.323 37.8145 132.524 38.5117 132.925 39.1133C133.33 39.7103 133.927 40.0088 134.716 40.0088C135.258 40.0088 135.728 39.8903 136.124 39.6533C136.521 39.4163 136.84 39.127 137.081 38.7852V34.9775C136.794 34.6859 136.448 34.458 136.042 34.2939C135.641 34.1253 135.176 34.041 134.647 34.041C133.877 34.041 133.296 34.3464 132.904 34.957C132.517 35.5632 132.323 36.2513 132.323 37.0215ZM130.806 37.0215C130.806 35.8594 131.145 34.8796 131.824 34.082C132.508 33.2799 133.428 32.8789 134.586 32.8789C135.128 32.8789 135.598 32.9655 135.994 33.1387C136.391 33.3118 136.753 33.5283 137.081 33.7881V30.582L135.468 31.0059C135.45 31.0059 135.438 31.0081 135.434 31.0127C135.429 31.0173 135.418 31.0195 135.399 31.0195C135.258 31.0195 135.131 30.958 135.017 30.835C134.907 30.7074 134.853 30.5729 134.853 30.4316C134.853 30.2357 134.903 30.1081 135.003 30.0488C135.108 29.985 135.235 29.9303 135.386 29.8848L138.018 29.126C138.027 29.1214 138.04 29.1191 138.059 29.1191C138.077 29.1146 138.097 29.1123 138.12 29.1123C138.216 29.1123 138.3 29.1442 138.373 29.208C138.446 29.2673 138.482 29.347 138.482 29.4473V39.7969L139.474 39.6533C139.496 39.6488 139.524 39.6465 139.556 39.6465C139.588 39.6419 139.622 39.6396 139.658 39.6396C139.84 39.6396 139.986 39.6852 140.096 39.7764C140.205 39.863 140.26 39.986 140.26 40.1455C140.26 40.5146 140.059 40.7288 139.658 40.7881C139.262 40.8428 138.915 40.8861 138.619 40.918C138.441 40.9453 138.241 40.9772 138.018 41.0137C137.799 41.0501 137.617 41.0684 137.471 41.0684C137.311 41.0684 137.206 41.0068 137.156 40.8838C137.106 40.7607 137.081 40.6217 137.081 40.4668V39.9746C136.821 40.2891 136.479 40.5671 136.056 40.8086C135.632 41.0501 135.153 41.1709 134.62 41.1709C133.422 41.1709 132.485 40.779 131.811 39.9951C131.141 39.2067 130.806 38.2155 130.806 37.0215ZM149.748 39.8516C149.748 40.2161 149.507 40.5283 149.023 40.7881C148.54 41.0433 148.144 41.1709 147.834 41.1709C147.46 41.1709 147.16 41.0798 146.932 40.8975C146.704 40.7152 146.549 40.4372 146.467 40.0635C146.134 40.4463 145.699 40.7311 145.161 40.918C144.623 41.1003 144.049 41.1914 143.438 41.1914C142.741 41.1914 142.158 40.9795 141.688 40.5557C141.224 40.1318 140.991 39.5804 140.991 38.9014C140.991 37.68 141.588 36.9326 142.782 36.6592C143.976 36.3857 145.143 36.1989 146.282 36.0986V34.9912C146.282 34.6357 146.13 34.3896 145.824 34.2529C145.519 34.1117 145.191 34.041 144.84 34.041C144.202 34.041 143.716 34.1094 143.384 34.2461C143.056 34.3828 142.673 34.5902 142.235 34.8682C142.194 34.891 142.153 34.9092 142.112 34.9229C142.076 34.9365 142.037 34.9434 141.996 34.9434C141.841 34.9434 141.702 34.8704 141.579 34.7246C141.456 34.5788 141.395 34.4261 141.395 34.2666C141.395 33.7197 141.793 33.3529 142.591 33.166C143.393 32.9746 144.076 32.8789 144.642 32.8789C145.795 32.8789 146.583 33.125 147.007 33.6172C147.431 34.1048 147.643 34.9183 147.643 36.0576V39.5029C147.643 39.6442 147.665 39.7627 147.711 39.8584C147.761 39.9495 147.839 39.9951 147.943 39.9951C148.148 39.9951 148.379 39.8721 148.634 39.626C148.889 39.3799 149.099 39.2568 149.263 39.2568C149.363 39.2568 149.468 39.3252 149.577 39.4619C149.691 39.5941 149.748 39.724 149.748 39.8516ZM146.282 37.124C145.562 37.2015 144.744 37.32 143.828 37.4795C142.917 37.6344 142.461 38.0947 142.461 38.8604C142.461 39.2477 142.604 39.5371 142.892 39.7285C143.179 39.9154 143.521 40.0088 143.917 40.0088C144.391 40.0088 144.824 39.9222 145.216 39.749C145.612 39.5713 145.968 39.3594 146.282 39.1133V37.124ZM155.634 31.2451C155.347 31.2451 155.101 31.1449 154.896 30.9443C154.695 30.7393 154.595 30.4932 154.595 30.2061C154.595 29.9189 154.695 29.6751 154.896 29.4746C155.101 29.2695 155.347 29.167 155.634 29.167C155.921 29.167 156.165 29.2695 156.365 29.4746C156.566 29.6751 156.666 29.9189 156.666 30.2061C156.666 30.4932 156.566 30.7393 156.365 30.9443C156.165 31.1449 155.921 31.2451 155.634 31.2451ZM153.528 40.4326C153.528 40.264 153.569 40.1204 153.651 40.002C153.738 39.8789 153.87 39.8174 154.048 39.8174H154.984V34.2803L154.007 34.5469C153.998 34.5514 153.984 34.556 153.966 34.5605C153.952 34.5605 153.934 34.5605 153.911 34.5605C153.774 34.5605 153.647 34.5059 153.528 34.3965C153.41 34.2826 153.351 34.1549 153.351 34.0137C153.351 33.8678 153.382 33.7448 153.446 33.6445C153.515 33.5397 153.613 33.4714 153.74 33.4395L155.928 32.8926C155.941 32.888 155.957 32.8857 155.976 32.8857C155.994 32.8812 156.014 32.8789 156.037 32.8789C156.137 32.8789 156.219 32.9085 156.283 32.9678C156.352 33.0225 156.386 33.0999 156.386 33.2002V39.8174H157.438C157.612 39.8174 157.737 39.8812 157.814 40.0088C157.892 40.1318 157.931 40.2777 157.931 40.4463C157.931 40.5967 157.885 40.7266 157.794 40.8359C157.707 40.9453 157.584 41 157.425 41H154.089C153.897 41 153.756 40.9499 153.665 40.8496C153.574 40.7448 153.528 40.6058 153.528 40.4326ZM164.158 34.041C163.548 34.041 162.966 34.2438 162.415 34.6494C161.868 35.0505 161.595 35.5563 161.595 36.167V39.7969H162.593C162.766 39.7969 162.889 39.8607 162.962 39.9883C163.039 40.1113 163.078 40.2572 163.078 40.4258C163.078 40.5762 163.035 40.7106 162.948 40.8291C162.862 40.943 162.739 41 162.579 41H159.387C159.195 41 159.054 40.9453 158.963 40.8359C158.872 40.7266 158.826 40.5853 158.826 40.4121C158.826 40.2435 158.867 40.0999 158.949 39.9814C159.036 39.8584 159.168 39.7969 159.346 39.7969H160.193V34.3076L159.216 34.5469C159.207 34.5514 159.193 34.556 159.175 34.5605C159.161 34.5605 159.143 34.5605 159.12 34.5605C158.983 34.5605 158.856 34.5059 158.737 34.3965C158.619 34.2826 158.56 34.1549 158.56 34.0137C158.56 33.8587 158.591 33.7357 158.655 33.6445C158.724 33.5488 158.822 33.4805 158.949 33.4395L160.856 32.8926C160.875 32.8926 160.886 32.8903 160.891 32.8857C160.895 32.8812 160.907 32.8789 160.925 32.8789H160.966C161.062 32.8789 161.144 32.9085 161.212 32.9678C161.28 33.0225 161.314 33.0999 161.314 33.2002L161.458 34.4922C161.69 34.0729 162.08 33.6992 162.627 33.3711C163.178 33.043 163.773 32.8789 164.411 32.8789C165.263 32.8789 165.94 33.1296 166.441 33.6309C166.943 34.1322 167.193 34.8112 167.193 35.668V39.7969H168.048C168.221 39.7969 168.346 39.8607 168.424 39.9883C168.501 40.1113 168.54 40.2572 168.54 40.4258C168.54 40.5762 168.494 40.7106 168.403 40.8291C168.317 40.943 168.194 41 168.034 41H164.705C164.514 41 164.372 40.9453 164.281 40.8359C164.19 40.7266 164.145 40.5853 164.145 40.4121C164.145 40.2435 164.186 40.0999 164.268 39.9814C164.354 39.8584 164.486 39.7969 164.664 39.7969H165.812V35.791C165.812 35.2487 165.674 34.8226 165.396 34.5127C165.122 34.1982 164.71 34.041 164.158 34.041ZM169.429 35.6953C169.429 34.8021 169.768 34.1094 170.447 33.6172C171.126 33.125 171.926 32.8789 172.847 32.8789C173.371 32.8789 173.845 32.9495 174.269 33.0908C174.697 33.2275 175.062 33.4144 175.362 33.6514L176.292 32.7422C176.497 32.5371 176.709 32.4095 176.928 32.3594C177.151 32.3047 177.354 32.2773 177.536 32.2773C177.755 32.2773 177.951 32.3206 178.124 32.4072C178.302 32.4938 178.391 32.651 178.391 32.8789C178.391 33.0384 178.293 33.1888 178.097 33.3301C177.905 33.4668 177.579 33.5352 177.119 33.5352H177.112L175.937 34.2803C176.05 34.5036 176.158 34.7611 176.258 35.0527C176.363 35.3444 176.415 35.6475 176.415 35.9619C176.415 36.8506 176.064 37.5182 175.362 37.9648C174.665 38.4069 173.826 38.6279 172.847 38.6279C172.76 38.6279 172.66 38.6257 172.546 38.6211C172.437 38.6165 172.325 38.6143 172.211 38.6143C171.915 38.6143 171.634 38.653 171.37 38.7305C171.11 38.8079 170.98 38.9948 170.98 39.291C170.98 39.5234 171.122 39.6693 171.404 39.7285C171.687 39.7878 171.985 39.8174 172.3 39.8174C172.414 39.8174 172.525 39.8174 172.635 39.8174C172.744 39.8128 172.842 39.8105 172.929 39.8105C174.032 39.8105 174.991 39.9382 175.807 40.1934C176.627 40.444 177.037 41.1322 177.037 42.2578C177.037 43.2832 176.597 43.903 175.718 44.1172C174.838 44.3359 173.872 44.4453 172.819 44.4453C172.022 44.4453 171.261 44.2812 170.536 43.9531C169.816 43.625 169.456 43.0645 169.456 42.2715C169.456 41.7702 169.556 41.3737 169.757 41.082C169.957 40.7904 170.235 40.5625 170.591 40.3984C170.39 40.2982 170.194 40.1523 170.003 39.9609C169.816 39.7695 169.723 39.5189 169.723 39.209C169.723 38.8262 169.823 38.5391 170.023 38.3477C170.229 38.1562 170.493 38.0195 170.816 37.9375C170.411 37.6686 170.078 37.3747 169.818 37.0557C169.559 36.7321 169.429 36.2786 169.429 35.6953ZM171.261 40.7949C171.119 40.9362 170.974 41.1048 170.823 41.3008C170.677 41.4967 170.604 41.7383 170.604 42.0254C170.604 42.4948 170.83 42.8229 171.281 43.0098C171.732 43.2012 172.236 43.2969 172.792 43.2969C173.507 43.2969 174.171 43.2422 174.781 43.1328C175.396 43.028 175.704 42.6908 175.704 42.1211C175.704 41.6198 175.481 41.3053 175.034 41.1777C174.588 41.0547 174.095 40.9932 173.558 40.9932C173.416 40.9932 173.286 40.9954 173.168 41C173.054 41 172.947 41 172.847 41C172.637 41 172.418 40.9886 172.19 40.9658C171.967 40.9385 171.657 40.8815 171.261 40.7949ZM172.942 33.8154C172.318 33.8154 171.812 33.9909 171.425 34.3418C171.037 34.6882 170.844 35.194 170.844 35.8594C170.844 36.4655 171.035 36.9189 171.418 37.2197C171.805 37.5205 172.295 37.6709 172.888 37.6709C173.489 37.6709 173.977 37.5342 174.351 37.2607C174.729 36.9873 174.918 36.5088 174.918 35.8252C174.918 35.1872 174.749 34.6927 174.412 34.3418C174.075 33.9909 173.585 33.8154 172.942 33.8154ZM180.954 31.2451C180.667 31.2451 180.421 31.1449 180.216 30.9443C180.015 30.7393 179.915 30.4932 179.915 30.2061C179.915 29.9189 180.015 29.6751 180.216 29.4746C180.421 29.2695 180.667 29.167 180.954 29.167C181.241 29.167 181.485 29.2695 181.686 29.4746C181.886 29.6751 181.986 29.9189 181.986 30.2061C181.986 30.4932 181.886 30.7393 181.686 30.9443C181.485 31.1449 181.241 31.2451 180.954 31.2451ZM178.849 40.4326C178.849 40.264 178.89 40.1204 178.972 40.002C179.058 39.8789 179.19 39.8174 179.368 39.8174H180.305V34.2803L179.327 34.5469C179.318 34.5514 179.304 34.556 179.286 34.5605C179.272 34.5605 179.254 34.5605 179.231 34.5605C179.095 34.5605 178.967 34.5059 178.849 34.3965C178.73 34.2826 178.671 34.1549 178.671 34.0137C178.671 33.8678 178.703 33.7448 178.767 33.6445C178.835 33.5397 178.933 33.4714 179.061 33.4395L181.248 32.8926C181.262 32.888 181.278 32.8857 181.296 32.8857C181.314 32.8812 181.335 32.8789 181.357 32.8789C181.458 32.8789 181.54 32.9085 181.604 32.9678C181.672 33.0225 181.706 33.0999 181.706 33.2002V39.8174H182.759C182.932 39.8174 183.057 39.8812 183.135 40.0088C183.212 40.1318 183.251 40.2777 183.251 40.4463C183.251 40.5967 183.205 40.7266 183.114 40.8359C183.028 40.9453 182.905 41 182.745 41H179.409C179.218 41 179.076 40.9499 178.985 40.8496C178.894 40.7448 178.849 40.6058 178.849 40.4326ZM189.479 34.041C188.868 34.041 188.287 34.2438 187.735 34.6494C187.188 35.0505 186.915 35.5563 186.915 36.167V39.7969H187.913C188.086 39.7969 188.209 39.8607 188.282 39.9883C188.36 40.1113 188.398 40.2572 188.398 40.4258C188.398 40.5762 188.355 40.7106 188.269 40.8291C188.182 40.943 188.059 41 187.899 41H184.707C184.516 41 184.374 40.9453 184.283 40.8359C184.192 40.7266 184.146 40.5853 184.146 40.4121C184.146 40.2435 184.188 40.0999 184.27 39.9814C184.356 39.8584 184.488 39.7969 184.666 39.7969H185.514V34.3076L184.536 34.5469C184.527 34.5514 184.513 34.556 184.495 34.5605C184.481 34.5605 184.463 34.5605 184.44 34.5605C184.304 34.5605 184.176 34.5059 184.058 34.3965C183.939 34.2826 183.88 34.1549 183.88 34.0137C183.88 33.8587 183.912 33.7357 183.976 33.6445C184.044 33.5488 184.142 33.4805 184.27 33.4395L186.177 32.8926C186.195 32.8926 186.206 32.8903 186.211 32.8857C186.215 32.8812 186.227 32.8789 186.245 32.8789H186.286C186.382 32.8789 186.464 32.9085 186.532 32.9678C186.601 33.0225 186.635 33.0999 186.635 33.2002L186.778 34.4922C187.011 34.0729 187.4 33.6992 187.947 33.3711C188.499 33.043 189.093 32.8789 189.731 32.8789C190.584 32.8789 191.26 33.1296 191.762 33.6309C192.263 34.1322 192.514 34.8112 192.514 35.668V39.7969H193.368C193.541 39.7969 193.667 39.8607 193.744 39.9883C193.822 40.1113 193.86 40.2572 193.86 40.4258C193.86 40.5762 193.815 40.7106 193.724 40.8291C193.637 40.943 193.514 41 193.354 41H190.025C189.834 41 189.693 40.9453 189.602 40.8359C189.51 40.7266 189.465 40.5853 189.465 40.4121C189.465 40.2435 189.506 40.0999 189.588 39.9814C189.674 39.8584 189.807 39.7969 189.984 39.7969H191.133V35.791C191.133 35.2487 190.994 34.8226 190.716 34.5127C190.442 34.1982 190.03 34.041 189.479 34.041ZM26.3389 44.1123C26.4346 44.1123 26.5189 44.1442 26.5918 44.208C26.6647 44.2673 26.7012 44.347 26.7012 44.4473V51.7617C27.2298 51.4062 27.7835 51.0303 28.3623 50.6338C28.9411 50.2373 29.488 49.8704 30.0029 49.5332C30.012 49.5332 29.9118 49.5332 29.7021 49.5332C29.4925 49.5332 29.3512 49.5332 29.2783 49.5332C29.1006 49.5332 28.9684 49.474 28.8818 49.3555C28.7998 49.2324 28.7588 49.0866 28.7588 48.918C28.7588 48.7448 28.8044 48.6035 28.8955 48.4941C28.9867 48.3848 29.1279 48.3301 29.3193 48.3301H32.4844C32.6439 48.3301 32.7669 48.3551 32.8535 48.4053C32.9447 48.4508 32.9902 48.5488 32.9902 48.6992C32.9902 48.8678 32.9515 49.0501 32.874 49.2461C32.7965 49.4375 32.6712 49.5332 32.498 49.5332H31.7393C31.557 49.5332 31.3975 49.5833 31.2607 49.6836C31.1286 49.7839 31.0033 49.8773 30.8848 49.9639L28.9023 51.4609L30.8848 54.0107C31.1309 54.3525 31.3701 54.5553 31.6025 54.6191C31.835 54.6829 32.1699 54.7148 32.6074 54.7148H32.71C33.0107 54.7148 33.2181 54.7559 33.332 54.8379C33.446 54.9154 33.5029 55.084 33.5029 55.3438C33.5029 55.6126 33.4209 55.7904 33.2568 55.877C33.0928 55.959 32.8581 56 32.5527 56H29.5723C29.3991 56 29.2692 55.9408 29.1826 55.8223C29.096 55.6992 29.0527 55.5534 29.0527 55.3848C29.0527 55.2116 29.096 55.0703 29.1826 54.9609C29.2738 54.8516 29.4173 54.7969 29.6133 54.7969H30.0166L27.959 52.042L26.7012 52.8076V54.7969H27.7402C27.9134 54.7969 28.0365 54.8607 28.1094 54.9883C28.1868 55.1113 28.2256 55.2572 28.2256 55.4258C28.2256 55.5762 28.1823 55.7106 28.0957 55.8291C28.0091 55.943 27.8861 56 27.7266 56H24.2812C24.0898 56 23.9486 55.9453 23.8574 55.8359C23.7663 55.7266 23.7207 55.5853 23.7207 55.4121C23.7207 55.2435 23.7617 55.0999 23.8438 54.9814C23.9303 54.8584 24.0625 54.7969 24.2402 54.7969H25.2998V45.582L23.6934 46.0059C23.6751 46.0059 23.6615 46.0081 23.6523 46.0127C23.6478 46.0173 23.6364 46.0195 23.6182 46.0195C23.4769 46.0195 23.3516 45.958 23.2422 45.835C23.1328 45.7074 23.0781 45.5729 23.0781 45.4316C23.0781 45.2357 23.1283 45.1081 23.2285 45.0488C23.3288 44.985 23.4541 44.9303 23.6045 44.8848L26.2363 44.126C26.2454 44.1214 26.2591 44.1191 26.2773 44.1191C26.2956 44.1146 26.3161 44.1123 26.3389 44.1123ZM35.4238 52.1787C35.4238 53.0719 35.7018 53.7533 36.2578 54.2227C36.8184 54.6875 37.5065 54.9199 38.3223 54.9199C38.901 54.9199 39.3545 54.8128 39.6826 54.5986C40.0153 54.3799 40.332 54.1315 40.6328 53.8535C40.7012 53.7943 40.7741 53.751 40.8516 53.7236C40.929 53.6917 41.0065 53.6758 41.084 53.6758C41.2663 53.6758 41.4212 53.7327 41.5488 53.8467C41.6764 53.9561 41.7402 54.1042 41.7402 54.291C41.7402 54.8743 41.3164 55.3346 40.4688 55.6719C39.6257 56.0046 38.8919 56.1709 38.2676 56.1709C37.0189 56.1709 35.9889 55.8018 35.1777 55.0635C34.3711 54.3206 33.9678 53.3226 33.9678 52.0693C33.9678 50.8298 34.3392 49.8226 35.082 49.0479C35.8249 48.2686 36.832 47.8789 38.1035 47.8789C39.015 47.8789 39.8467 48.1956 40.5986 48.8291C41.3506 49.458 41.7266 50.2715 41.7266 51.2695C41.7266 51.6113 41.6195 51.8164 41.4053 51.8848C41.1956 51.9531 40.929 52.0033 40.6055 52.0352L35.4238 52.1787ZM40.0107 50.832C40.0107 50.1803 39.8102 49.7201 39.4092 49.4512C39.0127 49.1777 38.5775 49.041 38.1035 49.041C37.3014 49.041 36.6634 49.2393 36.1895 49.6357C35.7201 50.0322 35.4557 50.5586 35.3965 51.2148L39.5049 51.126C39.6325 51.1214 39.7487 51.0986 39.8535 51.0576C39.9583 51.012 40.0107 50.9368 40.0107 50.832ZM45.9375 44.1396C46.0332 44.1396 46.1175 44.1715 46.1904 44.2354C46.2633 44.2946 46.2998 44.3743 46.2998 44.4746V54.7969H47.9678C48.141 54.7969 48.2663 54.8607 48.3438 54.9883C48.4212 55.1113 48.46 55.2572 48.46 55.4258C48.46 55.5762 48.4144 55.7106 48.3232 55.8291C48.2367 55.943 48.1136 56 47.9541 56H43.3877C43.1963 56 43.055 55.9453 42.9639 55.8359C42.8727 55.7266 42.8271 55.5853 42.8271 55.4121C42.8271 55.2435 42.8682 55.0999 42.9502 54.9814C43.0368 54.8584 43.1689 54.7969 43.3467 54.7969H44.8984V45.6094L43.292 46.0332C43.2738 46.0332 43.2624 46.0355 43.2578 46.04C43.2533 46.0446 43.2419 46.0469 43.2236 46.0469C43.0824 46.0469 42.9548 45.9854 42.8408 45.8623C42.7314 45.7347 42.6768 45.6003 42.6768 45.459C42.6768 45.263 42.7269 45.1354 42.8271 45.0762C42.932 45.0124 43.0596 44.9577 43.21 44.9121L45.8418 44.1533C45.8509 44.1488 45.8623 44.1465 45.876 44.1465C45.8942 44.1419 45.9147 44.1396 45.9375 44.1396ZM53.2178 55.0088C53.8011 55.0088 54.3298 54.8721 54.8037 54.5986C55.2822 54.3206 55.6172 53.9811 55.8086 53.5801V49.3076L54.8311 49.5469C54.8219 49.5514 54.8083 49.556 54.79 49.5605C54.7718 49.5605 54.7513 49.5605 54.7285 49.5605C54.5918 49.5605 54.4642 49.5059 54.3457 49.3965C54.2272 49.2826 54.168 49.1549 54.168 49.0137C54.168 48.8678 54.2021 48.7448 54.2705 48.6445C54.3389 48.5397 54.4368 48.4714 54.5645 48.4395L56.7451 47.8926C56.7588 47.888 56.7747 47.8857 56.793 47.8857C56.8158 47.8812 56.8385 47.8789 56.8613 47.8789C56.9661 47.8789 57.0505 47.9085 57.1143 47.9678C57.1781 48.0225 57.21 48.1045 57.21 48.2139V54.7012H58.2422C58.3971 54.7012 58.5156 54.7559 58.5977 54.8652C58.6797 54.9701 58.7207 55.0999 58.7207 55.2549C58.7207 55.4007 58.6865 55.526 58.6182 55.6309C58.5544 55.7311 58.4587 55.7972 58.3311 55.8291L56.4648 56.0273C56.3327 56.0273 56.2256 55.984 56.1436 55.8975C56.0661 55.8063 56.0114 55.6491 55.9795 55.4258L55.877 54.7559C55.6126 55.1478 55.2093 55.4827 54.667 55.7607C54.1247 56.0342 53.5573 56.1709 52.9648 56.1709C52.1536 56.1709 51.5202 55.9134 51.0645 55.3984C50.6133 54.8789 50.3877 54.2067 50.3877 53.3818V49.3076L49.4102 49.5469C49.401 49.5514 49.3874 49.556 49.3691 49.5605C49.3555 49.5605 49.3372 49.5605 49.3145 49.5605C49.1777 49.5605 49.0501 49.5059 48.9316 49.3965C48.8132 49.2826 48.7539 49.1549 48.7539 49.0137C48.7539 48.8678 48.7858 48.7448 48.8496 48.6445C48.918 48.5397 49.016 48.4714 49.1436 48.4395L51.3311 47.8926C51.3447 47.888 51.3607 47.8857 51.3789 47.8857C51.3971 47.8812 51.4176 47.8789 51.4404 47.8789C51.5452 47.8789 51.6296 47.9085 51.6934 47.9678C51.7572 48.0225 51.7891 48.1045 51.7891 48.2139V53.2588C51.7891 53.7601 51.9053 54.1771 52.1377 54.5098C52.3747 54.8424 52.7347 55.0088 53.2178 55.0088ZM68.0312 54.8516C68.0312 55.2161 67.7897 55.5283 67.3066 55.7881C66.8236 56.0433 66.4271 56.1709 66.1172 56.1709C65.7435 56.1709 65.4427 56.0798 65.2148 55.8975C64.987 55.7152 64.832 55.4372 64.75 55.0635C64.4173 55.4463 63.9821 55.7311 63.4443 55.918C62.9066 56.1003 62.3324 56.1914 61.7217 56.1914C61.0244 56.1914 60.4411 55.9795 59.9717 55.5557C59.5068 55.1318 59.2744 54.5804 59.2744 53.9014C59.2744 52.68 59.8714 51.9326 61.0654 51.6592C62.2594 51.3857 63.4261 51.1989 64.5654 51.0986V49.9912C64.5654 49.6357 64.4128 49.3896 64.1074 49.2529C63.8021 49.1117 63.474 49.041 63.123 49.041C62.485 49.041 61.9997 49.1094 61.667 49.2461C61.3389 49.3828 60.9561 49.5902 60.5186 49.8682C60.4775 49.891 60.4365 49.9092 60.3955 49.9229C60.359 49.9365 60.3203 49.9434 60.2793 49.9434C60.1243 49.9434 59.9854 49.8704 59.8623 49.7246C59.7393 49.5788 59.6777 49.4261 59.6777 49.2666C59.6777 48.7197 60.0765 48.3529 60.874 48.166C61.6761 47.9746 62.3597 47.8789 62.9248 47.8789C64.0778 47.8789 64.8662 48.125 65.29 48.6172C65.7139 49.1048 65.9258 49.9183 65.9258 51.0576V54.5029C65.9258 54.6442 65.9486 54.7627 65.9941 54.8584C66.0443 54.9495 66.1217 54.9951 66.2266 54.9951C66.4316 54.9951 66.6618 54.8721 66.917 54.626C67.1722 54.3799 67.3818 54.2568 67.5459 54.2568C67.6462 54.2568 67.751 54.3252 67.8604 54.4619C67.9743 54.5941 68.0312 54.724 68.0312 54.8516ZM64.5654 52.124C63.8454 52.2015 63.0273 52.32 62.1113 52.4795C61.1999 52.6344 60.7441 53.0947 60.7441 53.8604C60.7441 54.2477 60.8877 54.5371 61.1748 54.7285C61.4619 54.9154 61.8037 55.0088 62.2002 55.0088C62.6742 55.0088 63.1071 54.9222 63.499 54.749C63.8955 54.5713 64.251 54.3594 64.5654 54.1133V52.124ZM73.9717 49.123C73.4248 49.123 72.9372 49.2438 72.5088 49.4854C72.0804 49.7269 71.7546 50.014 71.5312 50.3467V54.7969H73.3633C73.5365 54.7969 73.6618 54.8607 73.7393 54.9883C73.8167 55.1113 73.8555 55.2572 73.8555 55.4258C73.8555 55.5762 73.8099 55.7106 73.7188 55.8291C73.6322 55.943 73.5091 56 73.3496 56H68.8311C68.6396 56 68.4984 55.9453 68.4072 55.8359C68.3161 55.7266 68.2705 55.5853 68.2705 55.4121C68.2705 55.2435 68.3115 55.0999 68.3936 54.9814C68.4801 54.8584 68.6123 54.7969 68.79 54.7969H70.1299V49.3076L69.1523 49.5469C69.1432 49.5514 69.1296 49.556 69.1113 49.5605C69.0977 49.5605 69.0794 49.5605 69.0566 49.5605C68.9199 49.5605 68.7923 49.5059 68.6738 49.3965C68.5553 49.2826 68.4961 49.1549 68.4961 49.0137C68.4961 48.8587 68.528 48.7357 68.5918 48.6445C68.6602 48.5488 68.7581 48.4805 68.8857 48.4395L70.793 47.8926C70.8112 47.8926 70.8226 47.8903 70.8271 47.8857C70.8317 47.8812 70.8431 47.8789 70.8613 47.8789H70.9023C70.998 47.8789 71.0801 47.9085 71.1484 47.9678C71.2168 48.0225 71.251 48.0999 71.251 48.2002L71.3945 49.4922C71.709 49.0137 72.1214 48.6263 72.6318 48.3301C73.1468 48.0293 73.8031 47.8789 74.6006 47.8789C74.751 47.8789 74.8831 47.9245 74.9971 48.0156C75.1156 48.1022 75.1748 48.2253 75.1748 48.3848V49.8408C75.1748 50.0322 75.1201 50.1735 75.0107 50.2646C74.9014 50.3558 74.7601 50.4014 74.5869 50.4014C74.4183 50.4014 74.2725 50.3604 74.1494 50.2783C74.0309 50.1917 73.9717 50.0596 73.9717 49.8818V49.123ZM80.7256 52.0215C80.7256 52.8145 80.9261 53.5117 81.3271 54.1133C81.7327 54.7103 82.3298 55.0088 83.1182 55.0088C83.6605 55.0088 84.1299 54.8903 84.5264 54.6533C84.9229 54.4163 85.2419 54.127 85.4834 53.7852V49.9775C85.1963 49.6859 84.8499 49.458 84.4443 49.2939C84.0433 49.1253 83.5785 49.041 83.0498 49.041C82.2796 49.041 81.6986 49.3464 81.3066 49.957C80.9193 50.5632 80.7256 51.2513 80.7256 52.0215ZM79.208 52.0215C79.208 50.8594 79.5475 49.8796 80.2266 49.082C80.9102 48.2799 81.8307 47.8789 82.9883 47.8789C83.5306 47.8789 84 47.9655 84.3965 48.1387C84.793 48.3118 85.1553 48.5283 85.4834 48.7881V45.582L83.8701 46.0059C83.8519 46.0059 83.8405 46.0081 83.8359 46.0127C83.8314 46.0173 83.82 46.0195 83.8018 46.0195C83.6605 46.0195 83.5329 45.958 83.4189 45.835C83.3096 45.7074 83.2549 45.5729 83.2549 45.4316C83.2549 45.2357 83.305 45.1081 83.4053 45.0488C83.5101 44.985 83.6377 44.9303 83.7881 44.8848L86.4199 44.126C86.429 44.1214 86.4427 44.1191 86.4609 44.1191C86.4792 44.1146 86.4997 44.1123 86.5225 44.1123C86.6182 44.1123 86.7025 44.1442 86.7754 44.208C86.8483 44.2673 86.8848 44.347 86.8848 44.4473V54.7969L87.876 54.6533C87.8988 54.6488 87.9261 54.6465 87.958 54.6465C87.9899 54.6419 88.0241 54.6396 88.0605 54.6396C88.2428 54.6396 88.3887 54.6852 88.498 54.7764C88.6074 54.863 88.6621 54.986 88.6621 55.1455C88.6621 55.5146 88.4616 55.7288 88.0605 55.7881C87.6641 55.8428 87.3177 55.8861 87.0215 55.918C86.8438 55.9453 86.6432 55.9772 86.4199 56.0137C86.2012 56.0501 86.0189 56.0684 85.873 56.0684C85.7135 56.0684 85.6087 56.0068 85.5586 55.8838C85.5085 55.7607 85.4834 55.6217 85.4834 55.4668V54.9746C85.2236 55.2891 84.8818 55.5671 84.458 55.8086C84.0342 56.0501 83.5557 56.1709 83.0225 56.1709C81.8239 56.1709 80.8874 55.779 80.2129 54.9951C79.543 54.2067 79.208 53.2155 79.208 52.0215ZM98.1504 54.8516C98.1504 55.2161 97.9089 55.5283 97.4258 55.7881C96.9427 56.0433 96.5462 56.1709 96.2363 56.1709C95.8626 56.1709 95.5618 56.0798 95.334 55.8975C95.1061 55.7152 94.9512 55.4372 94.8691 55.0635C94.5365 55.4463 94.1012 55.7311 93.5635 55.918C93.0257 56.1003 92.4515 56.1914 91.8408 56.1914C91.1436 56.1914 90.5602 55.9795 90.0908 55.5557C89.626 55.1318 89.3936 54.5804 89.3936 53.9014C89.3936 52.68 89.9906 51.9326 91.1846 51.6592C92.3786 51.3857 93.5452 51.1989 94.6846 51.0986V49.9912C94.6846 49.6357 94.5319 49.3896 94.2266 49.2529C93.9212 49.1117 93.5931 49.041 93.2422 49.041C92.6042 49.041 92.1188 49.1094 91.7861 49.2461C91.458 49.3828 91.0752 49.5902 90.6377 49.8682C90.5967 49.891 90.5557 49.9092 90.5146 49.9229C90.4782 49.9365 90.4395 49.9434 90.3984 49.9434C90.2435 49.9434 90.1045 49.8704 89.9814 49.7246C89.8584 49.5788 89.7969 49.4261 89.7969 49.2666C89.7969 48.7197 90.1956 48.3529 90.9932 48.166C91.7952 47.9746 92.4788 47.8789 93.0439 47.8789C94.1969 47.8789 94.9854 48.125 95.4092 48.6172C95.833 49.1048 96.0449 49.9183 96.0449 51.0576V54.5029C96.0449 54.6442 96.0677 54.7627 96.1133 54.8584C96.1634 54.9495 96.2409 54.9951 96.3457 54.9951C96.5508 54.9951 96.7809 54.8721 97.0361 54.626C97.2913 54.3799 97.501 54.2568 97.665 54.2568C97.7653 54.2568 97.8701 54.3252 97.9795 54.4619C98.0934 54.5941 98.1504 54.724 98.1504 54.8516ZM94.6846 52.124C93.9645 52.2015 93.1465 52.32 92.2305 52.4795C91.319 52.6344 90.8633 53.0947 90.8633 53.8604C90.8633 54.2477 91.0068 54.5371 91.2939 54.7285C91.5811 54.9154 91.9229 55.0088 92.3193 55.0088C92.7933 55.0088 93.2262 54.9222 93.6182 54.749C94.0146 54.5713 94.3701 54.3594 94.6846 54.1133V52.124ZM104.091 49.123C103.544 49.123 103.056 49.2438 102.628 49.4854C102.2 49.7269 101.874 50.014 101.65 50.3467V54.7969H103.482C103.656 54.7969 103.781 54.8607 103.858 54.9883C103.936 55.1113 103.975 55.2572 103.975 55.4258C103.975 55.5762 103.929 55.7106 103.838 55.8291C103.751 55.943 103.628 56 103.469 56H98.9502C98.7588 56 98.6175 55.9453 98.5264 55.8359C98.4352 55.7266 98.3896 55.5853 98.3896 55.4121C98.3896 55.2435 98.4307 55.0999 98.5127 54.9814C98.5993 54.8584 98.7314 54.7969 98.9092 54.7969H100.249V49.3076L99.2715 49.5469C99.2624 49.5514 99.2487 49.556 99.2305 49.5605C99.2168 49.5605 99.1986 49.5605 99.1758 49.5605C99.0391 49.5605 98.9115 49.5059 98.793 49.3965C98.6745 49.2826 98.6152 49.1549 98.6152 49.0137C98.6152 48.8587 98.6471 48.7357 98.7109 48.6445C98.7793 48.5488 98.8773 48.4805 99.0049 48.4395L100.912 47.8926C100.93 47.8926 100.942 47.8903 100.946 47.8857C100.951 47.8812 100.962 47.8789 100.98 47.8789H101.021C101.117 47.8789 101.199 47.9085 101.268 47.9678C101.336 48.0225 101.37 48.0999 101.37 48.2002L101.514 49.4922C101.828 49.0137 102.241 48.6263 102.751 48.3301C103.266 48.0293 103.922 47.8789 104.72 47.8789C104.87 47.8789 105.002 47.9245 105.116 48.0156C105.235 48.1022 105.294 48.2253 105.294 48.3848V49.8408C105.294 50.0322 105.239 50.1735 105.13 50.2646C105.021 50.3558 104.879 50.4014 104.706 50.4014C104.537 50.4014 104.392 50.3604 104.269 50.2783C104.15 50.1917 104.091 50.0596 104.091 49.8818V49.123ZM108.466 46.2451C108.179 46.2451 107.933 46.1449 107.728 45.9443C107.527 45.7393 107.427 45.4932 107.427 45.2061C107.427 44.9189 107.527 44.6751 107.728 44.4746C107.933 44.2695 108.179 44.167 108.466 44.167C108.753 44.167 108.997 44.2695 109.197 44.4746C109.398 44.6751 109.498 44.9189 109.498 45.2061C109.498 45.4932 109.398 45.7393 109.197 45.9443C108.997 46.1449 108.753 46.2451 108.466 46.2451ZM106.36 55.4326C106.36 55.264 106.401 55.1204 106.483 55.002C106.57 54.8789 106.702 54.8174 106.88 54.8174H107.816V49.2803L106.839 49.5469C106.83 49.5514 106.816 49.556 106.798 49.5605C106.784 49.5605 106.766 49.5605 106.743 49.5605C106.606 49.5605 106.479 49.5059 106.36 49.3965C106.242 49.2826 106.183 49.1549 106.183 49.0137C106.183 48.8678 106.215 48.7448 106.278 48.6445C106.347 48.5397 106.445 48.4714 106.572 48.4395L108.76 47.8926C108.773 47.888 108.789 47.8857 108.808 47.8857C108.826 47.8812 108.846 47.8789 108.869 47.8789C108.969 47.8789 109.051 47.9085 109.115 47.9678C109.184 48.0225 109.218 48.0999 109.218 48.2002V54.8174H110.271C110.444 54.8174 110.569 54.8812 110.646 55.0088C110.724 55.1318 110.763 55.2777 110.763 55.4463C110.763 55.5967 110.717 55.7266 110.626 55.8359C110.539 55.9453 110.416 56 110.257 56H106.921C106.729 56 106.588 55.9499 106.497 55.8496C106.406 55.7448 106.36 55.6058 106.36 55.4326ZM123.416 54.8516C123.416 55.2161 123.174 55.5283 122.691 55.7881C122.208 56.0433 121.812 56.1709 121.502 56.1709C121.128 56.1709 120.827 56.0798 120.6 55.8975C120.372 55.7152 120.217 55.4372 120.135 55.0635C119.802 55.4463 119.367 55.7311 118.829 55.918C118.291 56.1003 117.717 56.1914 117.106 56.1914C116.409 56.1914 115.826 55.9795 115.356 55.5557C114.892 55.1318 114.659 54.5804 114.659 53.9014C114.659 52.68 115.256 51.9326 116.45 51.6592C117.644 51.3857 118.811 51.1989 119.95 51.0986V49.9912C119.95 49.6357 119.798 49.3896 119.492 49.2529C119.187 49.1117 118.859 49.041 118.508 49.041C117.87 49.041 117.384 49.1094 117.052 49.2461C116.724 49.3828 116.341 49.5902 115.903 49.8682C115.862 49.891 115.821 49.9092 115.78 49.9229C115.744 49.9365 115.705 49.9434 115.664 49.9434C115.509 49.9434 115.37 49.8704 115.247 49.7246C115.124 49.5788 115.062 49.4261 115.062 49.2666C115.062 48.7197 115.461 48.3529 116.259 48.166C117.061 47.9746 117.744 47.8789 118.31 47.8789C119.463 47.8789 120.251 48.125 120.675 48.6172C121.099 49.1048 121.311 49.9183 121.311 51.0576V54.5029C121.311 54.6442 121.333 54.7627 121.379 54.8584C121.429 54.9495 121.507 54.9951 121.611 54.9951C121.816 54.9951 122.047 54.8721 122.302 54.626C122.557 54.3799 122.767 54.2568 122.931 54.2568C123.031 54.2568 123.136 54.3252 123.245 54.4619C123.359 54.5941 123.416 54.724 123.416 54.8516ZM119.95 52.124C119.23 52.2015 118.412 52.32 117.496 52.4795C116.585 52.6344 116.129 53.0947 116.129 53.8604C116.129 54.2477 116.272 54.5371 116.56 54.7285C116.847 54.9154 117.188 55.0088 117.585 55.0088C118.059 55.0088 118.492 54.9222 118.884 54.749C119.28 54.5713 119.636 54.3594 119.95 54.1133V52.124ZM131.421 52.0215C131.421 51.2148 131.218 50.5176 130.812 49.9297C130.411 49.3372 129.817 49.041 129.028 49.041C128.427 49.041 127.907 49.1549 127.47 49.3828C127.037 49.6107 126.684 49.9023 126.41 50.2578V54.0654C126.697 54.3525 127.055 54.5827 127.483 54.7559C127.916 54.9245 128.418 55.0088 128.987 55.0088C129.785 55.0088 130.389 54.7126 130.799 54.1201C131.214 53.5231 131.421 52.8236 131.421 52.0215ZM132.932 52.0215C132.932 53.2337 132.574 54.2295 131.858 55.0088C131.143 55.7835 130.186 56.1709 128.987 56.1709C128.427 56.1709 127.937 56.0866 127.518 55.918C127.103 55.7493 126.734 55.5283 126.41 55.2549V58.7275H127.791C127.964 58.7275 128.09 58.7913 128.167 58.9189C128.244 59.0465 128.283 59.1947 128.283 59.3633C128.283 59.5137 128.238 59.6458 128.146 59.7598C128.06 59.8737 127.937 59.9307 127.777 59.9307H124.195C124.004 59.9307 123.863 59.876 123.771 59.7666C123.68 59.6572 123.635 59.516 123.635 59.3428C123.635 59.1742 123.676 59.0283 123.758 58.9053C123.844 58.7868 123.977 58.7275 124.154 58.7275H125.009V49.3076L124.031 49.5469C124.022 49.5514 124.008 49.556 123.99 49.5605C123.972 49.5605 123.951 49.5605 123.929 49.5605C123.792 49.5605 123.664 49.5059 123.546 49.3965C123.427 49.2826 123.368 49.1549 123.368 49.0137C123.368 48.8587 123.402 48.7357 123.471 48.6445C123.539 48.5488 123.637 48.4805 123.765 48.4395L125.665 47.8926C125.683 47.8926 125.695 47.8903 125.699 47.8857C125.704 47.8812 125.715 47.8789 125.733 47.8789H125.781C125.877 47.8789 125.959 47.9085 126.027 47.9678C126.096 48.0225 126.13 48.0999 126.13 48.2002L126.267 49.4922C126.485 49.0273 126.85 48.6423 127.36 48.3369C127.871 48.0316 128.459 47.8789 129.124 47.8789C130.318 47.8789 131.25 48.2708 131.92 49.0547C132.594 49.834 132.932 50.8229 132.932 52.0215ZM136.951 44.1396C137.047 44.1396 137.131 44.1715 137.204 44.2354C137.277 44.2946 137.313 44.3743 137.313 44.4746V54.7969H138.981C139.155 54.7969 139.28 54.8607 139.357 54.9883C139.435 55.1113 139.474 55.2572 139.474 55.4258C139.474 55.5762 139.428 55.7106 139.337 55.8291C139.25 55.943 139.127 56 138.968 56H134.401C134.21 56 134.069 55.9453 133.978 55.8359C133.886 55.7266 133.841 55.5853 133.841 55.4121C133.841 55.2435 133.882 55.0999 133.964 54.9814C134.05 54.8584 134.183 54.7969 134.36 54.7969H135.912V45.6094L134.306 46.0332C134.287 46.0332 134.276 46.0355 134.271 46.04C134.267 46.0446 134.256 46.0469 134.237 46.0469C134.096 46.0469 133.968 45.9854 133.854 45.8623C133.745 45.7347 133.69 45.6003 133.69 45.459C133.69 45.263 133.741 45.1354 133.841 45.0762C133.946 45.0124 134.073 44.9577 134.224 44.9121L136.855 44.1533C136.865 44.1488 136.876 44.1465 136.89 44.1465C136.908 44.1419 136.928 44.1396 136.951 44.1396ZM142.468 46.2451C142.181 46.2451 141.935 46.1449 141.729 45.9443C141.529 45.7393 141.429 45.4932 141.429 45.2061C141.429 44.9189 141.529 44.6751 141.729 44.4746C141.935 44.2695 142.181 44.167 142.468 44.167C142.755 44.167 142.999 44.2695 143.199 44.4746C143.4 44.6751 143.5 44.9189 143.5 45.2061C143.5 45.4932 143.4 45.7393 143.199 45.9443C142.999 46.1449 142.755 46.2451 142.468 46.2451ZM140.362 55.4326C140.362 55.264 140.403 55.1204 140.485 55.002C140.572 54.8789 140.704 54.8174 140.882 54.8174H141.818V49.2803L140.841 49.5469C140.832 49.5514 140.818 49.556 140.8 49.5605C140.786 49.5605 140.768 49.5605 140.745 49.5605C140.608 49.5605 140.481 49.5059 140.362 49.3965C140.244 49.2826 140.185 49.1549 140.185 49.0137C140.185 48.8678 140.216 48.7448 140.28 48.6445C140.349 48.5397 140.447 48.4714 140.574 48.4395L142.762 47.8926C142.775 47.888 142.791 47.8857 142.81 47.8857C142.828 47.8812 142.848 47.8789 142.871 47.8789C142.971 47.8789 143.053 47.9085 143.117 47.9678C143.186 48.0225 143.22 48.0999 143.22 48.2002V54.8174H144.272C144.446 54.8174 144.571 54.8812 144.648 55.0088C144.726 55.1318 144.765 55.2777 144.765 55.4463C144.765 55.5967 144.719 55.7266 144.628 55.8359C144.541 55.9453 144.418 56 144.259 56H140.923C140.731 56 140.59 55.9499 140.499 55.8496C140.408 55.7448 140.362 55.6058 140.362 55.4326ZM148.101 44.1123C148.196 44.1123 148.281 44.1442 148.354 44.208C148.426 44.2673 148.463 44.347 148.463 44.4473V51.7617C148.992 51.4062 149.545 51.0303 150.124 50.6338C150.703 50.2373 151.25 49.8704 151.765 49.5332C151.774 49.5332 151.674 49.5332 151.464 49.5332C151.254 49.5332 151.113 49.5332 151.04 49.5332C150.862 49.5332 150.73 49.474 150.644 49.3555C150.562 49.2324 150.521 49.0866 150.521 48.918C150.521 48.7448 150.566 48.6035 150.657 48.4941C150.748 48.3848 150.89 48.3301 151.081 48.3301H154.246C154.406 48.3301 154.529 48.3551 154.615 48.4053C154.706 48.4508 154.752 48.5488 154.752 48.6992C154.752 48.8678 154.713 49.0501 154.636 49.2461C154.558 49.4375 154.433 49.5332 154.26 49.5332H153.501C153.319 49.5332 153.159 49.5833 153.022 49.6836C152.89 49.7839 152.765 49.8773 152.646 49.9639L150.664 51.4609L152.646 54.0107C152.893 54.3525 153.132 54.5553 153.364 54.6191C153.597 54.6829 153.932 54.7148 154.369 54.7148H154.472C154.772 54.7148 154.98 54.7559 155.094 54.8379C155.208 54.9154 155.265 55.084 155.265 55.3438C155.265 55.6126 155.183 55.7904 155.019 55.877C154.854 55.959 154.62 56 154.314 56H151.334C151.161 56 151.031 55.9408 150.944 55.8223C150.858 55.6992 150.814 55.5534 150.814 55.3848C150.814 55.2116 150.858 55.0703 150.944 54.9609C151.035 54.8516 151.179 54.7969 151.375 54.7969H151.778L149.721 52.042L148.463 52.8076V54.7969H149.502C149.675 54.7969 149.798 54.8607 149.871 54.9883C149.949 55.1113 149.987 55.2572 149.987 55.4258C149.987 55.5762 149.944 55.7106 149.857 55.8291C149.771 55.943 149.648 56 149.488 56H146.043C145.852 56 145.71 55.9453 145.619 55.8359C145.528 55.7266 145.482 55.5853 145.482 55.4121C145.482 55.2435 145.523 55.0999 145.605 54.9814C145.692 54.8584 145.824 54.7969 146.002 54.7969H147.062V45.582L145.455 46.0059C145.437 46.0059 145.423 46.0081 145.414 46.0127C145.41 46.0173 145.398 46.0195 145.38 46.0195C145.239 46.0195 145.113 45.958 145.004 45.835C144.895 45.7074 144.84 45.5729 144.84 45.4316C144.84 45.2357 144.89 45.1081 144.99 45.0488C145.09 44.985 145.216 44.9303 145.366 44.8848L147.998 44.126C148.007 44.1214 148.021 44.1191 148.039 44.1191C148.057 44.1146 148.078 44.1123 148.101 44.1123ZM164.432 54.8516C164.432 55.2161 164.19 55.5283 163.707 55.7881C163.224 56.0433 162.827 56.1709 162.518 56.1709C162.144 56.1709 161.843 56.0798 161.615 55.8975C161.387 55.7152 161.232 55.4372 161.15 55.0635C160.818 55.4463 160.382 55.7311 159.845 55.918C159.307 56.1003 158.733 56.1914 158.122 56.1914C157.425 56.1914 156.841 55.9795 156.372 55.5557C155.907 55.1318 155.675 54.5804 155.675 53.9014C155.675 52.68 156.272 51.9326 157.466 51.6592C158.66 51.3857 159.826 51.1989 160.966 51.0986V49.9912C160.966 49.6357 160.813 49.3896 160.508 49.2529C160.202 49.1117 159.874 49.041 159.523 49.041C158.885 49.041 158.4 49.1094 158.067 49.2461C157.739 49.3828 157.356 49.5902 156.919 49.8682C156.878 49.891 156.837 49.9092 156.796 49.9229C156.759 49.9365 156.721 49.9434 156.68 49.9434C156.525 49.9434 156.386 49.8704 156.263 49.7246C156.14 49.5788 156.078 49.4261 156.078 49.2666C156.078 48.7197 156.477 48.3529 157.274 48.166C158.076 47.9746 158.76 47.8789 159.325 47.8789C160.478 47.8789 161.267 48.125 161.69 48.6172C162.114 49.1048 162.326 49.9183 162.326 51.0576V54.5029C162.326 54.6442 162.349 54.7627 162.395 54.8584C162.445 54.9495 162.522 54.9951 162.627 54.9951C162.832 54.9951 163.062 54.8721 163.317 54.626C163.573 54.3799 163.782 54.2568 163.946 54.2568C164.047 54.2568 164.151 54.3252 164.261 54.4619C164.375 54.5941 164.432 54.724 164.432 54.8516ZM160.966 52.124C160.246 52.2015 159.428 52.32 158.512 52.4795C157.6 52.6344 157.145 53.0947 157.145 53.8604C157.145 54.2477 157.288 54.5371 157.575 54.7285C157.862 54.9154 158.204 55.0088 158.601 55.0088C159.075 55.0088 159.507 54.9222 159.899 54.749C160.296 54.5713 160.651 54.3594 160.966 54.1133V52.124ZM165.402 50.1143C165.402 49.2347 165.717 48.6423 166.346 48.3369C166.975 48.0316 167.647 47.8789 168.362 47.8789C168.827 47.8789 169.287 47.9769 169.743 48.1729C170.199 48.3643 170.511 48.6104 170.68 48.9111L170.687 48.3301C170.687 48.1888 170.737 48.0771 170.837 47.9951C170.937 47.9085 171.058 47.8652 171.199 47.8652C171.4 47.8652 171.55 47.9108 171.65 48.002C171.751 48.0931 171.801 48.2253 171.801 48.3984L171.773 50.374C171.755 50.529 171.696 50.6475 171.596 50.7295C171.495 50.807 171.368 50.8457 171.213 50.8457C171.062 50.8457 170.962 50.8001 170.912 50.709C170.862 50.6178 170.814 50.488 170.769 50.3193C170.614 49.8408 170.292 49.474 169.805 49.2188C169.322 48.9635 168.836 48.8359 168.349 48.8359C167.929 48.8359 167.562 48.918 167.248 49.082C166.934 49.2461 166.776 49.4945 166.776 49.8271C166.776 50.1143 166.87 50.3376 167.057 50.4971C167.243 50.6566 167.547 50.7887 167.966 50.8936L169.716 51.4678C170.326 51.6729 170.88 51.9326 171.377 52.2471C171.874 52.5615 172.122 53.1038 172.122 53.874C172.122 54.6305 171.862 55.2048 171.343 55.5967C170.828 55.9886 170.103 56.1846 169.169 56.1846C168.681 56.1846 168.146 56.1071 167.562 55.9521C166.979 55.7926 166.558 55.5693 166.298 55.2822C166.298 55.583 166.243 55.779 166.134 55.8701C166.029 55.9567 165.899 56 165.744 56C165.571 56 165.425 55.9613 165.307 55.8838C165.193 55.8063 165.136 55.6764 165.136 55.4941V53.1836C165.14 53.0423 165.195 52.9352 165.3 52.8623C165.405 52.7894 165.523 52.7529 165.655 52.7529C165.856 52.7529 165.995 52.8008 166.072 52.8965C166.154 52.9876 166.216 53.1221 166.257 53.2998C166.398 53.9196 166.724 54.3844 167.234 54.6943C167.745 55.0042 168.365 55.1592 169.094 55.1592C169.536 55.1592 169.914 55.0749 170.229 54.9062C170.548 54.7376 170.707 54.4619 170.707 54.0791C170.707 53.6963 170.616 53.416 170.434 53.2383C170.251 53.0605 169.928 52.901 169.463 52.7598L167.604 52.1787C167.025 51.9964 166.512 51.7549 166.065 51.4541C165.623 51.1533 165.402 50.7067 165.402 50.1143ZM175.567 46.2451C175.28 46.2451 175.034 46.1449 174.829 45.9443C174.629 45.7393 174.528 45.4932 174.528 45.2061C174.528 44.9189 174.629 44.6751 174.829 44.4746C175.034 44.2695 175.28 44.167 175.567 44.167C175.854 44.167 176.098 44.2695 176.299 44.4746C176.499 44.6751 176.6 44.9189 176.6 45.2061C176.6 45.4932 176.499 45.7393 176.299 45.9443C176.098 46.1449 175.854 46.2451 175.567 46.2451ZM173.462 55.4326C173.462 55.264 173.503 55.1204 173.585 55.002C173.672 54.8789 173.804 54.8174 173.981 54.8174H174.918V49.2803L173.94 49.5469C173.931 49.5514 173.918 49.556 173.899 49.5605C173.886 49.5605 173.868 49.5605 173.845 49.5605C173.708 49.5605 173.58 49.5059 173.462 49.3965C173.343 49.2826 173.284 49.1549 173.284 49.0137C173.284 48.8678 173.316 48.7448 173.38 48.6445C173.448 48.5397 173.546 48.4714 173.674 48.4395L175.861 47.8926C175.875 47.888 175.891 47.8857 175.909 47.8857C175.927 47.8812 175.948 47.8789 175.971 47.8789C176.071 47.8789 176.153 47.9085 176.217 47.9678C176.285 48.0225 176.319 48.0999 176.319 48.2002V54.8174H177.372C177.545 54.8174 177.671 54.8812 177.748 55.0088C177.826 55.1318 177.864 55.2777 177.864 55.4463C177.864 55.5967 177.819 55.7266 177.728 55.8359C177.641 55.9453 177.518 56 177.358 56H174.022C173.831 56 173.69 55.9499 173.599 55.8496C173.507 55.7448 173.462 55.6058 173.462 55.4326ZM184.14 46.2451C183.853 46.2451 183.606 46.1449 183.401 45.9443C183.201 45.7393 183.101 45.4932 183.101 45.2061C183.101 44.9189 183.201 44.6751 183.401 44.4746C183.606 44.2695 183.853 44.167 184.14 44.167C184.427 44.167 184.671 44.2695 184.871 44.4746C185.072 44.6751 185.172 44.9189 185.172 45.2061C185.172 45.4932 185.072 45.7393 184.871 45.9443C184.671 46.1449 184.427 46.2451 184.14 46.2451ZM182.034 55.4326C182.034 55.264 182.075 55.1204 182.157 55.002C182.244 54.8789 182.376 54.8174 182.554 54.8174H183.49V49.2803L182.513 49.5469C182.504 49.5514 182.49 49.556 182.472 49.5605C182.458 49.5605 182.44 49.5605 182.417 49.5605C182.28 49.5605 182.153 49.5059 182.034 49.3965C181.916 49.2826 181.856 49.1549 181.856 49.0137C181.856 48.8678 181.888 48.7448 181.952 48.6445C182.021 48.5397 182.118 48.4714 182.246 48.4395L184.434 47.8926C184.447 47.888 184.463 47.8857 184.481 47.8857C184.5 47.8812 184.52 47.8789 184.543 47.8789C184.643 47.8789 184.725 47.9085 184.789 47.9678C184.857 48.0225 184.892 48.0999 184.892 48.2002V54.8174H185.944C186.118 54.8174 186.243 54.8812 186.32 55.0088C186.398 55.1318 186.437 55.2777 186.437 55.4463C186.437 55.5967 186.391 55.7266 186.3 55.8359C186.213 55.9453 186.09 56 185.931 56H182.595C182.403 56 182.262 55.9499 182.171 55.8496C182.08 55.7448 182.034 55.6058 182.034 55.4326ZM192.664 49.041C192.053 49.041 191.472 49.2438 190.921 49.6494C190.374 50.0505 190.101 50.5563 190.101 51.167V54.7969H191.099C191.272 54.7969 191.395 54.8607 191.468 54.9883C191.545 55.1113 191.584 55.2572 191.584 55.4258C191.584 55.5762 191.541 55.7106 191.454 55.8291C191.368 55.943 191.244 56 191.085 56H187.893C187.701 56 187.56 55.9453 187.469 55.8359C187.378 55.7266 187.332 55.5853 187.332 55.4121C187.332 55.2435 187.373 55.0999 187.455 54.9814C187.542 54.8584 187.674 54.7969 187.852 54.7969H188.699V49.3076L187.722 49.5469C187.713 49.5514 187.699 49.556 187.681 49.5605C187.667 49.5605 187.649 49.5605 187.626 49.5605C187.489 49.5605 187.362 49.5059 187.243 49.3965C187.125 49.2826 187.065 49.1549 187.065 49.0137C187.065 48.8587 187.097 48.7357 187.161 48.6445C187.229 48.5488 187.327 48.4805 187.455 48.4395L189.362 47.8926C189.381 47.8926 189.392 47.8903 189.396 47.8857C189.401 47.8812 189.412 47.8789 189.431 47.8789H189.472C189.567 47.8789 189.649 47.9085 189.718 47.9678C189.786 48.0225 189.82 48.0999 189.82 48.2002L189.964 49.4922C190.196 49.0729 190.586 48.6992 191.133 48.3711C191.684 48.043 192.279 47.8789 192.917 47.8789C193.769 47.8789 194.446 48.1296 194.947 48.6309C195.449 49.1322 195.699 49.8112 195.699 50.668V54.7969H196.554C196.727 54.7969 196.852 54.8607 196.93 54.9883C197.007 55.1113 197.046 55.2572 197.046 55.4258C197.046 55.5762 197 55.7106 196.909 55.8291C196.823 55.943 196.7 56 196.54 56H193.211C193.02 56 192.878 55.9453 192.787 55.8359C192.696 55.7266 192.65 55.5853 192.65 55.4121C192.65 55.2435 192.691 55.0999 192.773 54.9814C192.86 54.8584 192.992 54.7969 193.17 54.7969H194.318V50.791C194.318 50.2487 194.179 49.8226 193.901 49.5127C193.628 49.1982 193.215 49.041 192.664 49.041ZM200.081 46.2451C199.794 46.2451 199.548 46.1449 199.343 45.9443C199.142 45.7393 199.042 45.4932 199.042 45.2061C199.042 44.9189 199.142 44.6751 199.343 44.4746C199.548 44.2695 199.794 44.167 200.081 44.167C200.368 44.167 200.612 44.2695 200.812 44.4746C201.013 44.6751 201.113 44.9189 201.113 45.2061C201.113 45.4932 201.013 45.7393 200.812 45.9443C200.612 46.1449 200.368 46.2451 200.081 46.2451ZM197.976 55.4326C197.976 55.264 198.017 55.1204 198.099 55.002C198.185 54.8789 198.317 54.8174 198.495 54.8174H199.432V49.2803L198.454 49.5469C198.445 49.5514 198.431 49.556 198.413 49.5605C198.399 49.5605 198.381 49.5605 198.358 49.5605C198.222 49.5605 198.094 49.5059 197.976 49.3965C197.857 49.2826 197.798 49.1549 197.798 49.0137C197.798 48.8678 197.83 48.7448 197.894 48.6445C197.962 48.5397 198.06 48.4714 198.188 48.4395L200.375 47.8926C200.389 47.888 200.405 47.8857 200.423 47.8857C200.441 47.8812 200.462 47.8789 200.484 47.8789C200.585 47.8789 200.667 47.9085 200.73 47.9678C200.799 48.0225 200.833 48.0999 200.833 48.2002V54.8174H201.886C202.059 54.8174 202.184 54.8812 202.262 55.0088C202.339 55.1318 202.378 55.2777 202.378 55.4463C202.378 55.5967 202.332 55.7266 202.241 55.8359C202.155 55.9453 202.032 56 201.872 56H198.536C198.345 56 198.203 55.9499 198.112 55.8496C198.021 55.7448 197.976 55.6058 197.976 55.4326ZM210.943 54.9062C210.943 55.2754 210.809 55.5785 210.54 55.8154C210.276 56.0479 209.959 56.1641 209.59 56.1641C209.266 56.1641 209.018 56.0365 208.845 55.7812C208.676 55.526 208.592 55.2389 208.592 54.9199C208.592 54.5781 208.703 54.2819 208.927 54.0312C209.155 53.7806 209.439 53.6553 209.781 53.6553C210.109 53.6553 210.385 53.7829 210.608 54.0381C210.832 54.2933 210.943 54.5827 210.943 54.9062ZM209.843 52.7256C209.46 52.7256 209.228 52.6025 209.146 52.3564C209.068 52.1104 209.029 51.8141 209.029 51.4678V51.3789C209.029 50.3171 209.521 49.638 210.506 49.3418C211.49 49.0456 211.982 48.3506 211.982 47.2568C211.982 46.7008 211.823 46.2178 211.504 45.8076C211.185 45.3929 210.727 45.1855 210.13 45.1855C209.938 45.1855 209.733 45.2106 209.515 45.2607C209.3 45.3109 209.073 45.3906 208.831 45.5C208.795 46.0286 208.729 46.5026 208.633 46.9219C208.542 47.3411 208.225 47.5508 207.683 47.5508C207.4 47.5508 207.17 47.446 206.992 47.2363C206.819 47.0267 206.732 46.7829 206.732 46.5049C206.732 45.6982 207.088 45.099 207.799 44.707C208.51 44.3105 209.269 44.1123 210.075 44.1123C211.069 44.1123 211.916 44.4131 212.618 45.0146C213.325 45.6162 213.678 46.4297 213.678 47.4551C213.678 48.6536 213.147 49.4375 212.085 49.8066C211.023 50.1712 210.492 50.7773 210.492 51.625C210.492 51.9395 210.444 52.2015 210.349 52.4111C210.257 52.6208 210.089 52.7256 209.843 52.7256Z" fill="#322110"/>
<path d="M29.7339 17.0185C29.8125 15.4061 30.0792 14.6962 31.0897 13.4985C33.3499 10.8198 35.8082 7.13691 39.0944 5.65033C45.9691 2.54033 55.1267 2 62.5086 2C70.712 2 76.0371 5.28247 82.2986 9.97857" stroke="#322110" stroke-width="3" stroke-linecap="round"/>
<path d="M82.2986 9.97856C88.894 3.54022 96.3531 3.18994 104.722 5.75461C106.815 6.396 108.314 7.71868 109.52 9.50923C109.954 10.1545 111.898 14.2985 111.397 12.7945" stroke="#322110" stroke-width="3" stroke-linecap="round"/>
<path d="M111.397 12.3252C115.165 11.0439 118.711 10.1426 122.661 9.50923C125.21 9.10031 129.568 8.19934 132.073 9.32672C134.182 10.2755 135.593 11.8388 136.923 13.681C137.134 13.9724 138.618 15.7681 138.618 15.1412" stroke="#322110" stroke-width="3" stroke-linecap="round"/>
<path d="M138.618 16.0798C141.762 11.7562 144.848 8.80631 150.247 7.52762C157.089 5.9072 164.05 4.91077 171.002 6.69326C174.943 7.70388 179.367 9.89632 182.265 12.7945C182.918 13.4469 184.32 15.9643 183.204 13.7332" stroke="#322110" stroke-width="3" stroke-linecap="round"/>
<path d="M184.143 15.1412C191.376 15.1412 201.246 12.9162 205.523 20.1995C206.121 21.2174 208.843 28.2823 209.486 28.2823" stroke="#322110" stroke-width="3" stroke-linecap="round"/>
<path d="M208.548 27.813C214.654 27.813 220.571 27.8357 226.069 30.9679C230.99 33.7708 235.839 39.9448 235.195 46.0125C234.937 48.4465 233.377 49.9163 231.753 51.5401C230.877 52.4166 230.074 54.3123 229.667 52.6874" stroke="#322110" stroke-width="3" stroke-linecap="round"/>
<path d="M231.076 52.218C231.076 55.1868 231.687 58.9933 230.867 61.8653C230.351 63.6705 228.438 64.7651 227.06 65.8546C224.088 68.2046 221.105 70.1061 217.595 71.5909C213.439 73.3493 199.119 78.3726 196.815 71.4605" stroke="#322110" stroke-width="3" stroke-linecap="round"/>
<path d="M195.407 69.5832C195.407 74.2307 193.742 75.5466 189.357 77.7704C183.415 80.7849 177.843 81.9689 171.21 82.229C167.673 82.3677 162.557 81.7533 159.972 78.9697C158.93 77.8468 158.645 76.8621 157.86 75.6845" stroke="#322110" stroke-width="3" stroke-linecap="round"/>
<path d="M157.391 75.6844C157.101 87.8537 138.935 90.5177 129.961 87.4176C127.292 86.4955 122.944 84.3482 121.487 81.7596C120.914 80.7397 120.56 77.439 119.375 78.0311" stroke="#322110" stroke-width="3" stroke-linecap="round"/>
<path d="M29.2646 17.0185C24.023 17.0185 19.8086 17.1584 15.6541 20.8513C11.2699 24.7484 8.77635 28.6797 7.49298 34.3836C6.54046 38.617 7.55223 39.8307 9.55281 42.8315" stroke="#322110" stroke-width="3" stroke-linecap="round"/>
<path d="M11.4301 42.3622C6.02139 43.5495 3.3547 46.9551 2.27817 52.2181C0.923905 58.8389 4.70156 64.0445 9.55275 68.3317C13.5797 71.8904 19.5965 74.2765 24.9884 74.2765C26.2806 74.2765 28.1576 74.1437 28.7952 72.8685" stroke="#322110" stroke-width="3" stroke-linecap="round"/>
<path d="M28.6381 73.3376C34.6685 77.0147 38.8059 82.0744 46.1667 83.126C50.4172 83.7332 56.1129 84.0651 60.2376 82.6472C61.5809 82.1854 65.853 80.7792 66.4617 79.5617" stroke="#322110" stroke-width="3" stroke-linecap="round"/>
<path d="M65.5042 80.0405C68.483 80.608 71.0606 81.4619 73.7498 82.9132C77.1746 84.7615 81.0328 84.5183 84.8416 84.323C87.679 84.1775 95.9335 83.0722 97.1037 79.5618" stroke="#322110" stroke-width="3" stroke-linecap="round"/>
<path d="M96.6249 80.0405C102.014 82.2751 107.295 83.9195 113.276 82.8068C115.983 82.3032 117.867 79.7134 120.085 78.6042" stroke="#322110" stroke-width="3" stroke-linecap="round"/>
</svg>
